M48
; DRILL file {KiCad 7.0.5-7.0.5~ubuntu22.04.1} date Thursday 29 June 2023 11:20:05 AM
; FORMAT={-:-/ absolute / inch / decimal}
; #@! TF.CreationDate,2023-06-29T11:20:05+05:30
; #@! TF.GenerationSoftware,Kicad,Pcbnew,7.0.5-7.0.5~ubuntu22.04.1
; #@! TF.FileFunction,Plated,1,2,PTH
FMAT,2
INCH
; #@! TA.AperFunction,Plated,PTH,ViaDrill
T1C0.0157
; #@! TA.AperFunction,Plated,PTH,ComponentDrill
T2C0.0276
; #@! TA.AperFunction,Plated,PTH,ComponentDrill
T3C0.0315
; #@! TA.AperFunction,Plated,PTH,ComponentDrill
T4C0.0394
; #@! TA.AperFunction,Plated,PTH,ComponentDrill
T5C0.0409
; #@! TA.AperFunction,Plated,PTH,ComponentDrill
T6C0.0429
; #@! TA.AperFunction,Plated,PTH,ComponentDrill
T7C0.0433
; #@! TA.AperFunction,Plated,PTH,ComponentDrill
T8C0.0472
; #@! TA.AperFunction,Plated,PTH,ComponentDrill
T9C0.0512
; #@! TA.AperFunction,Plated,PTH,ComponentDrill
T10C0.0630
; #@! TA.AperFunction,Plated,PTH,ComponentDrill
T11C0.0709
%
G90
G05
T1
X4.625Y-2.8
X5.72Y-2.515
X5.8Y-2.82
X6.255Y-2.535
T2
X3.625Y-3.95
X3.825Y-3.95
X5.2Y-3.825
X5.4Y-3.825
X5.675Y-3.825
X5.875Y-3.825
X5.925Y-2.825
X6.125Y-2.825
X6.125Y-3.825
X6.325Y-3.825
X6.925Y-3.075
X7.125Y-3.075
T3
X5.8766Y-2.45
X5.975Y-2.45
T4
X5.9285Y-2.0618
X5.9285Y-2.1618
X6.0285Y-2.0618
X6.0285Y-2.1618
X6.1285Y-2.0618
X6.1285Y-2.1618
X6.2285Y-2.0618
X6.2285Y-2.1618
X6.7766Y-3.8632
X6.875Y-3.8632
X6.9734Y-3.8632
T5
X3.797Y-2.0
X3.797Y-3.0
X3.897Y-2.0
X3.897Y-3.0
X3.997Y-2.0
X3.997Y-3.0
X4.097Y-2.0
X4.097Y-3.0
X4.197Y-2.0
X4.197Y-3.0
X4.297Y-2.0
X4.297Y-3.0
X4.397Y-2.0
X4.397Y-3.0
X4.497Y-2.0
X4.497Y-3.0
X4.597Y-2.0
X4.597Y-3.0
X4.697Y-2.0
X4.697Y-3.0
X4.797Y-2.0
X4.797Y-3.0
X4.897Y-2.0
X4.897Y-3.0
X4.997Y-2.0
X4.997Y-3.0
X5.097Y-2.0
X5.097Y-3.0
X5.197Y-2.0
X5.197Y-3.0
X5.297Y-2.0
X5.297Y-3.0
X5.397Y-2.0
X5.397Y-3.0
X5.497Y-2.0
X5.497Y-3.0
X5.597Y-2.0
X5.597Y-3.0
T6
X4.875Y-3.475
X4.875Y-3.575
X4.875Y-3.675
T7
X3.9766Y-3.2563
X4.075Y-3.2563
X4.1734Y-3.2563
X4.4187Y-3.5016
X4.4187Y-3.6
X4.4187Y-3.6984
X6.5766Y-2.3813
X6.675Y-2.3813
X6.7734Y-2.3813
X7.0187Y-2.6266
X7.0187Y-2.725
X7.0187Y-2.8234
T8
X5.2234Y-3.425
X5.2234Y-3.6809
X5.4006Y-3.425
X5.4006Y-3.6809
X5.6864Y-3.425
X5.6864Y-3.6809
X5.8636Y-3.425
X5.8636Y-3.6809
X5.9364Y-2.972
X5.9364Y-3.228
X6.1136Y-2.972
X6.1136Y-3.228
X6.1364Y-3.425
X6.1364Y-3.6809
X6.3136Y-3.425
X6.3136Y-3.6809
T9
X3.947Y-3.8264
X3.947Y-4.0035
X4.203Y-3.8264
X4.203Y-4.0035
X6.547Y-2.9514
X6.547Y-3.1285
X6.803Y-2.9514
X6.803Y-3.1285
T10
X3.826Y-3.4031
X3.826Y-3.7969
X4.324Y-3.4031
X4.324Y-3.7969
X6.426Y-2.5281
X6.426Y-2.9219
X6.924Y-2.5281
X6.924Y-2.9219
T11
G00X6.7018Y-3.5935
M15
G01X6.7018Y-3.5817
M16
G05
G00X7.0482Y-3.5935
M15
G01X7.0482Y-3.5817
M16
G05
T0
M30
