%TF.GenerationSoftware,KiCad,Pcbnew,7.0.5-7.0.5~ubuntu22.04.1*%
%TF.CreationDate,2023-06-29T11:19:58+05:30*%
%TF.ProjectId,Controller,436f6e74-726f-46c6-9c65-722e6b696361,rev?*%
%TF.SameCoordinates,Original*%
%TF.FileFunction,Legend,Top*%
%TF.FilePolarity,Positive*%
%FSLAX46Y46*%
G04 Gerber Fmt 4.6, Leading zero omitted, Abs format (unit mm)*
G04 Created by KiCad (PCBNEW 7.0.5-7.0.5~ubuntu22.04.1) date 2023-06-29 11:19:58*
%MOMM*%
%LPD*%
G01*
G04 APERTURE LIST*
%ADD10C,0.100000*%
%ADD11C,0.150000*%
%ADD12C,0.300000*%
%ADD13C,0.400000*%
%ADD14C,0.120000*%
%ADD15C,0.127000*%
%ADD16C,0.200000*%
G04 APERTURE END LIST*
D10*
D11*
X177002200Y-166007200D02*
X285002200Y-166007200D01*
X285002200Y-198007200D01*
X177002200Y-198007200D01*
X177002200Y-166007200D01*
D10*
D11*
X10000000Y-10000000D02*
X287002200Y-10000000D01*
X287002200Y-200007200D01*
X10000000Y-200007200D01*
X10000000Y-10000000D01*
D10*
D11*
X12000000Y-12000000D02*
X285002200Y-12000000D01*
X285002200Y-198007200D01*
X12000000Y-198007200D01*
X12000000Y-12000000D01*
D10*
D11*
X60000000Y-12000000D02*
X60000000Y-10000000D01*
D10*
D11*
X110000000Y-12000000D02*
X110000000Y-10000000D01*
D10*
D11*
X160000000Y-12000000D02*
X160000000Y-10000000D01*
D10*
D11*
X210000000Y-12000000D02*
X210000000Y-10000000D01*
D10*
D11*
X260000000Y-12000000D02*
X260000000Y-10000000D01*
D10*
D11*
X36089160Y-11593604D02*
X35346303Y-11593604D01*
X35717731Y-11593604D02*
X35717731Y-10293604D01*
X35717731Y-10293604D02*
X35593922Y-10479319D01*
X35593922Y-10479319D02*
X35470112Y-10603128D01*
X35470112Y-10603128D02*
X35346303Y-10665033D01*
D10*
D11*
X85346303Y-10417414D02*
X85408207Y-10355509D01*
X85408207Y-10355509D02*
X85532017Y-10293604D01*
X85532017Y-10293604D02*
X85841541Y-10293604D01*
X85841541Y-10293604D02*
X85965350Y-10355509D01*
X85965350Y-10355509D02*
X86027255Y-10417414D01*
X86027255Y-10417414D02*
X86089160Y-10541223D01*
X86089160Y-10541223D02*
X86089160Y-10665033D01*
X86089160Y-10665033D02*
X86027255Y-10850747D01*
X86027255Y-10850747D02*
X85284398Y-11593604D01*
X85284398Y-11593604D02*
X86089160Y-11593604D01*
D10*
D11*
X135284398Y-10293604D02*
X136089160Y-10293604D01*
X136089160Y-10293604D02*
X135655826Y-10788842D01*
X135655826Y-10788842D02*
X135841541Y-10788842D01*
X135841541Y-10788842D02*
X135965350Y-10850747D01*
X135965350Y-10850747D02*
X136027255Y-10912652D01*
X136027255Y-10912652D02*
X136089160Y-11036461D01*
X136089160Y-11036461D02*
X136089160Y-11345985D01*
X136089160Y-11345985D02*
X136027255Y-11469795D01*
X136027255Y-11469795D02*
X135965350Y-11531700D01*
X135965350Y-11531700D02*
X135841541Y-11593604D01*
X135841541Y-11593604D02*
X135470112Y-11593604D01*
X135470112Y-11593604D02*
X135346303Y-11531700D01*
X135346303Y-11531700D02*
X135284398Y-11469795D01*
D10*
D11*
X185965350Y-10726938D02*
X185965350Y-11593604D01*
X185655826Y-10231700D02*
X185346303Y-11160271D01*
X185346303Y-11160271D02*
X186151064Y-11160271D01*
D10*
D11*
X236027255Y-10293604D02*
X235408207Y-10293604D01*
X235408207Y-10293604D02*
X235346303Y-10912652D01*
X235346303Y-10912652D02*
X235408207Y-10850747D01*
X235408207Y-10850747D02*
X235532017Y-10788842D01*
X235532017Y-10788842D02*
X235841541Y-10788842D01*
X235841541Y-10788842D02*
X235965350Y-10850747D01*
X235965350Y-10850747D02*
X236027255Y-10912652D01*
X236027255Y-10912652D02*
X236089160Y-11036461D01*
X236089160Y-11036461D02*
X236089160Y-11345985D01*
X236089160Y-11345985D02*
X236027255Y-11469795D01*
X236027255Y-11469795D02*
X235965350Y-11531700D01*
X235965350Y-11531700D02*
X235841541Y-11593604D01*
X235841541Y-11593604D02*
X235532017Y-11593604D01*
X235532017Y-11593604D02*
X235408207Y-11531700D01*
X235408207Y-11531700D02*
X235346303Y-11469795D01*
D10*
D11*
X285965350Y-10293604D02*
X285717731Y-10293604D01*
X285717731Y-10293604D02*
X285593922Y-10355509D01*
X285593922Y-10355509D02*
X285532017Y-10417414D01*
X285532017Y-10417414D02*
X285408207Y-10603128D01*
X285408207Y-10603128D02*
X285346303Y-10850747D01*
X285346303Y-10850747D02*
X285346303Y-11345985D01*
X285346303Y-11345985D02*
X285408207Y-11469795D01*
X285408207Y-11469795D02*
X285470112Y-11531700D01*
X285470112Y-11531700D02*
X285593922Y-11593604D01*
X285593922Y-11593604D02*
X285841541Y-11593604D01*
X285841541Y-11593604D02*
X285965350Y-11531700D01*
X285965350Y-11531700D02*
X286027255Y-11469795D01*
X286027255Y-11469795D02*
X286089160Y-11345985D01*
X286089160Y-11345985D02*
X286089160Y-11036461D01*
X286089160Y-11036461D02*
X286027255Y-10912652D01*
X286027255Y-10912652D02*
X285965350Y-10850747D01*
X285965350Y-10850747D02*
X285841541Y-10788842D01*
X285841541Y-10788842D02*
X285593922Y-10788842D01*
X285593922Y-10788842D02*
X285470112Y-10850747D01*
X285470112Y-10850747D02*
X285408207Y-10912652D01*
X285408207Y-10912652D02*
X285346303Y-11036461D01*
D10*
D11*
X60000000Y-198007200D02*
X60000000Y-200007200D01*
D10*
D11*
X110000000Y-198007200D02*
X110000000Y-200007200D01*
D10*
D11*
X160000000Y-198007200D02*
X160000000Y-200007200D01*
D10*
D11*
X210000000Y-198007200D02*
X210000000Y-200007200D01*
D10*
D11*
X260000000Y-198007200D02*
X260000000Y-200007200D01*
D10*
D11*
X36089160Y-199600804D02*
X35346303Y-199600804D01*
X35717731Y-199600804D02*
X35717731Y-198300804D01*
X35717731Y-198300804D02*
X35593922Y-198486519D01*
X35593922Y-198486519D02*
X35470112Y-198610328D01*
X35470112Y-198610328D02*
X35346303Y-198672233D01*
D10*
D11*
X85346303Y-198424614D02*
X85408207Y-198362709D01*
X85408207Y-198362709D02*
X85532017Y-198300804D01*
X85532017Y-198300804D02*
X85841541Y-198300804D01*
X85841541Y-198300804D02*
X85965350Y-198362709D01*
X85965350Y-198362709D02*
X86027255Y-198424614D01*
X86027255Y-198424614D02*
X86089160Y-198548423D01*
X86089160Y-198548423D02*
X86089160Y-198672233D01*
X86089160Y-198672233D02*
X86027255Y-198857947D01*
X86027255Y-198857947D02*
X85284398Y-199600804D01*
X85284398Y-199600804D02*
X86089160Y-199600804D01*
D10*
D11*
X135284398Y-198300804D02*
X136089160Y-198300804D01*
X136089160Y-198300804D02*
X135655826Y-198796042D01*
X135655826Y-198796042D02*
X135841541Y-198796042D01*
X135841541Y-198796042D02*
X135965350Y-198857947D01*
X135965350Y-198857947D02*
X136027255Y-198919852D01*
X136027255Y-198919852D02*
X136089160Y-199043661D01*
X136089160Y-199043661D02*
X136089160Y-199353185D01*
X136089160Y-199353185D02*
X136027255Y-199476995D01*
X136027255Y-199476995D02*
X135965350Y-199538900D01*
X135965350Y-199538900D02*
X135841541Y-199600804D01*
X135841541Y-199600804D02*
X135470112Y-199600804D01*
X135470112Y-199600804D02*
X135346303Y-199538900D01*
X135346303Y-199538900D02*
X135284398Y-199476995D01*
D10*
D11*
X185965350Y-198734138D02*
X185965350Y-199600804D01*
X185655826Y-198238900D02*
X185346303Y-199167471D01*
X185346303Y-199167471D02*
X186151064Y-199167471D01*
D10*
D11*
X236027255Y-198300804D02*
X235408207Y-198300804D01*
X235408207Y-198300804D02*
X235346303Y-198919852D01*
X235346303Y-198919852D02*
X235408207Y-198857947D01*
X235408207Y-198857947D02*
X235532017Y-198796042D01*
X235532017Y-198796042D02*
X235841541Y-198796042D01*
X235841541Y-198796042D02*
X235965350Y-198857947D01*
X235965350Y-198857947D02*
X236027255Y-198919852D01*
X236027255Y-198919852D02*
X236089160Y-199043661D01*
X236089160Y-199043661D02*
X236089160Y-199353185D01*
X236089160Y-199353185D02*
X236027255Y-199476995D01*
X236027255Y-199476995D02*
X235965350Y-199538900D01*
X235965350Y-199538900D02*
X235841541Y-199600804D01*
X235841541Y-199600804D02*
X235532017Y-199600804D01*
X235532017Y-199600804D02*
X235408207Y-199538900D01*
X235408207Y-199538900D02*
X235346303Y-199476995D01*
D10*
D11*
X285965350Y-198300804D02*
X285717731Y-198300804D01*
X285717731Y-198300804D02*
X285593922Y-198362709D01*
X285593922Y-198362709D02*
X285532017Y-198424614D01*
X285532017Y-198424614D02*
X285408207Y-198610328D01*
X285408207Y-198610328D02*
X285346303Y-198857947D01*
X285346303Y-198857947D02*
X285346303Y-199353185D01*
X285346303Y-199353185D02*
X285408207Y-199476995D01*
X285408207Y-199476995D02*
X285470112Y-199538900D01*
X285470112Y-199538900D02*
X285593922Y-199600804D01*
X285593922Y-199600804D02*
X285841541Y-199600804D01*
X285841541Y-199600804D02*
X285965350Y-199538900D01*
X285965350Y-199538900D02*
X286027255Y-199476995D01*
X286027255Y-199476995D02*
X286089160Y-199353185D01*
X286089160Y-199353185D02*
X286089160Y-199043661D01*
X286089160Y-199043661D02*
X286027255Y-198919852D01*
X286027255Y-198919852D02*
X285965350Y-198857947D01*
X285965350Y-198857947D02*
X285841541Y-198796042D01*
X285841541Y-198796042D02*
X285593922Y-198796042D01*
X285593922Y-198796042D02*
X285470112Y-198857947D01*
X285470112Y-198857947D02*
X285408207Y-198919852D01*
X285408207Y-198919852D02*
X285346303Y-199043661D01*
D10*
D11*
X10000000Y-60000000D02*
X12000000Y-60000000D01*
D10*
D11*
X10000000Y-110000000D02*
X12000000Y-110000000D01*
D10*
D11*
X10000000Y-160000000D02*
X12000000Y-160000000D01*
D10*
D11*
X10690476Y-35222176D02*
X11309523Y-35222176D01*
X10566666Y-35593604D02*
X10999999Y-34293604D01*
X10999999Y-34293604D02*
X11433333Y-35593604D01*
D10*
D11*
X11092857Y-84912652D02*
X11278571Y-84974557D01*
X11278571Y-84974557D02*
X11340476Y-85036461D01*
X11340476Y-85036461D02*
X11402380Y-85160271D01*
X11402380Y-85160271D02*
X11402380Y-85345985D01*
X11402380Y-85345985D02*
X11340476Y-85469795D01*
X11340476Y-85469795D02*
X11278571Y-85531700D01*
X11278571Y-85531700D02*
X11154761Y-85593604D01*
X11154761Y-85593604D02*
X10659523Y-85593604D01*
X10659523Y-85593604D02*
X10659523Y-84293604D01*
X10659523Y-84293604D02*
X11092857Y-84293604D01*
X11092857Y-84293604D02*
X11216666Y-84355509D01*
X11216666Y-84355509D02*
X11278571Y-84417414D01*
X11278571Y-84417414D02*
X11340476Y-84541223D01*
X11340476Y-84541223D02*
X11340476Y-84665033D01*
X11340476Y-84665033D02*
X11278571Y-84788842D01*
X11278571Y-84788842D02*
X11216666Y-84850747D01*
X11216666Y-84850747D02*
X11092857Y-84912652D01*
X11092857Y-84912652D02*
X10659523Y-84912652D01*
D10*
D11*
X11402380Y-135469795D02*
X11340476Y-135531700D01*
X11340476Y-135531700D02*
X11154761Y-135593604D01*
X11154761Y-135593604D02*
X11030952Y-135593604D01*
X11030952Y-135593604D02*
X10845238Y-135531700D01*
X10845238Y-135531700D02*
X10721428Y-135407890D01*
X10721428Y-135407890D02*
X10659523Y-135284080D01*
X10659523Y-135284080D02*
X10597619Y-135036461D01*
X10597619Y-135036461D02*
X10597619Y-134850747D01*
X10597619Y-134850747D02*
X10659523Y-134603128D01*
X10659523Y-134603128D02*
X10721428Y-134479319D01*
X10721428Y-134479319D02*
X10845238Y-134355509D01*
X10845238Y-134355509D02*
X11030952Y-134293604D01*
X11030952Y-134293604D02*
X11154761Y-134293604D01*
X11154761Y-134293604D02*
X11340476Y-134355509D01*
X11340476Y-134355509D02*
X11402380Y-134417414D01*
D10*
D11*
X10659523Y-185593604D02*
X10659523Y-184293604D01*
X10659523Y-184293604D02*
X10969047Y-184293604D01*
X10969047Y-184293604D02*
X11154761Y-184355509D01*
X11154761Y-184355509D02*
X11278571Y-184479319D01*
X11278571Y-184479319D02*
X11340476Y-184603128D01*
X11340476Y-184603128D02*
X11402380Y-184850747D01*
X11402380Y-184850747D02*
X11402380Y-185036461D01*
X11402380Y-185036461D02*
X11340476Y-185284080D01*
X11340476Y-185284080D02*
X11278571Y-185407890D01*
X11278571Y-185407890D02*
X11154761Y-185531700D01*
X11154761Y-185531700D02*
X10969047Y-185593604D01*
X10969047Y-185593604D02*
X10659523Y-185593604D01*
D10*
D11*
X287002200Y-60000000D02*
X285002200Y-60000000D01*
D10*
D11*
X287002200Y-110000000D02*
X285002200Y-110000000D01*
D10*
D11*
X287002200Y-160000000D02*
X285002200Y-160000000D01*
D10*
D11*
X285692676Y-35222176D02*
X286311723Y-35222176D01*
X285568866Y-35593604D02*
X286002199Y-34293604D01*
X286002199Y-34293604D02*
X286435533Y-35593604D01*
D10*
D11*
X286095057Y-84912652D02*
X286280771Y-84974557D01*
X286280771Y-84974557D02*
X286342676Y-85036461D01*
X286342676Y-85036461D02*
X286404580Y-85160271D01*
X286404580Y-85160271D02*
X286404580Y-85345985D01*
X286404580Y-85345985D02*
X286342676Y-85469795D01*
X286342676Y-85469795D02*
X286280771Y-85531700D01*
X286280771Y-85531700D02*
X286156961Y-85593604D01*
X286156961Y-85593604D02*
X285661723Y-85593604D01*
X285661723Y-85593604D02*
X285661723Y-84293604D01*
X285661723Y-84293604D02*
X286095057Y-84293604D01*
X286095057Y-84293604D02*
X286218866Y-84355509D01*
X286218866Y-84355509D02*
X286280771Y-84417414D01*
X286280771Y-84417414D02*
X286342676Y-84541223D01*
X286342676Y-84541223D02*
X286342676Y-84665033D01*
X286342676Y-84665033D02*
X286280771Y-84788842D01*
X286280771Y-84788842D02*
X286218866Y-84850747D01*
X286218866Y-84850747D02*
X286095057Y-84912652D01*
X286095057Y-84912652D02*
X285661723Y-84912652D01*
D10*
D11*
X286404580Y-135469795D02*
X286342676Y-135531700D01*
X286342676Y-135531700D02*
X286156961Y-135593604D01*
X286156961Y-135593604D02*
X286033152Y-135593604D01*
X286033152Y-135593604D02*
X285847438Y-135531700D01*
X285847438Y-135531700D02*
X285723628Y-135407890D01*
X285723628Y-135407890D02*
X285661723Y-135284080D01*
X285661723Y-135284080D02*
X285599819Y-135036461D01*
X285599819Y-135036461D02*
X285599819Y-134850747D01*
X285599819Y-134850747D02*
X285661723Y-134603128D01*
X285661723Y-134603128D02*
X285723628Y-134479319D01*
X285723628Y-134479319D02*
X285847438Y-134355509D01*
X285847438Y-134355509D02*
X286033152Y-134293604D01*
X286033152Y-134293604D02*
X286156961Y-134293604D01*
X286156961Y-134293604D02*
X286342676Y-134355509D01*
X286342676Y-134355509D02*
X286404580Y-134417414D01*
D10*
D11*
X285661723Y-185593604D02*
X285661723Y-184293604D01*
X285661723Y-184293604D02*
X285971247Y-184293604D01*
X285971247Y-184293604D02*
X286156961Y-184355509D01*
X286156961Y-184355509D02*
X286280771Y-184479319D01*
X286280771Y-184479319D02*
X286342676Y-184603128D01*
X286342676Y-184603128D02*
X286404580Y-184850747D01*
X286404580Y-184850747D02*
X286404580Y-185036461D01*
X286404580Y-185036461D02*
X286342676Y-185284080D01*
X286342676Y-185284080D02*
X286280771Y-185407890D01*
X286280771Y-185407890D02*
X286156961Y-185531700D01*
X286156961Y-185531700D02*
X285971247Y-185593604D01*
X285971247Y-185593604D02*
X285661723Y-185593604D01*
D10*
D11*
X200458026Y-193793328D02*
X200458026Y-192293328D01*
X200458026Y-192293328D02*
X200815169Y-192293328D01*
X200815169Y-192293328D02*
X201029455Y-192364757D01*
X201029455Y-192364757D02*
X201172312Y-192507614D01*
X201172312Y-192507614D02*
X201243741Y-192650471D01*
X201243741Y-192650471D02*
X201315169Y-192936185D01*
X201315169Y-192936185D02*
X201315169Y-193150471D01*
X201315169Y-193150471D02*
X201243741Y-193436185D01*
X201243741Y-193436185D02*
X201172312Y-193579042D01*
X201172312Y-193579042D02*
X201029455Y-193721900D01*
X201029455Y-193721900D02*
X200815169Y-193793328D01*
X200815169Y-193793328D02*
X200458026Y-193793328D01*
X202600884Y-193793328D02*
X202600884Y-193007614D01*
X202600884Y-193007614D02*
X202529455Y-192864757D01*
X202529455Y-192864757D02*
X202386598Y-192793328D01*
X202386598Y-192793328D02*
X202100884Y-192793328D01*
X202100884Y-192793328D02*
X201958026Y-192864757D01*
X202600884Y-193721900D02*
X202458026Y-193793328D01*
X202458026Y-193793328D02*
X202100884Y-193793328D01*
X202100884Y-193793328D02*
X201958026Y-193721900D01*
X201958026Y-193721900D02*
X201886598Y-193579042D01*
X201886598Y-193579042D02*
X201886598Y-193436185D01*
X201886598Y-193436185D02*
X201958026Y-193293328D01*
X201958026Y-193293328D02*
X202100884Y-193221900D01*
X202100884Y-193221900D02*
X202458026Y-193221900D01*
X202458026Y-193221900D02*
X202600884Y-193150471D01*
X203100884Y-192793328D02*
X203672312Y-192793328D01*
X203315169Y-192293328D02*
X203315169Y-193579042D01*
X203315169Y-193579042D02*
X203386598Y-193721900D01*
X203386598Y-193721900D02*
X203529455Y-193793328D01*
X203529455Y-193793328D02*
X203672312Y-193793328D01*
X204743741Y-193721900D02*
X204600884Y-193793328D01*
X204600884Y-193793328D02*
X204315170Y-193793328D01*
X204315170Y-193793328D02*
X204172312Y-193721900D01*
X204172312Y-193721900D02*
X204100884Y-193579042D01*
X204100884Y-193579042D02*
X204100884Y-193007614D01*
X204100884Y-193007614D02*
X204172312Y-192864757D01*
X204172312Y-192864757D02*
X204315170Y-192793328D01*
X204315170Y-192793328D02*
X204600884Y-192793328D01*
X204600884Y-192793328D02*
X204743741Y-192864757D01*
X204743741Y-192864757D02*
X204815170Y-193007614D01*
X204815170Y-193007614D02*
X204815170Y-193150471D01*
X204815170Y-193150471D02*
X204100884Y-193293328D01*
X205458026Y-193650471D02*
X205529455Y-193721900D01*
X205529455Y-193721900D02*
X205458026Y-193793328D01*
X205458026Y-193793328D02*
X205386598Y-193721900D01*
X205386598Y-193721900D02*
X205458026Y-193650471D01*
X205458026Y-193650471D02*
X205458026Y-193793328D01*
X205458026Y-192864757D02*
X205529455Y-192936185D01*
X205529455Y-192936185D02*
X205458026Y-193007614D01*
X205458026Y-193007614D02*
X205386598Y-192936185D01*
X205386598Y-192936185D02*
X205458026Y-192864757D01*
X205458026Y-192864757D02*
X205458026Y-193007614D01*
D10*
D11*
X177002200Y-194507200D02*
X285002200Y-194507200D01*
D10*
D11*
X178458026Y-196593328D02*
X178458026Y-195093328D01*
X179315169Y-196593328D02*
X178672312Y-195736185D01*
X179315169Y-195093328D02*
X178458026Y-195950471D01*
X179958026Y-196593328D02*
X179958026Y-195593328D01*
X179958026Y-195093328D02*
X179886598Y-195164757D01*
X179886598Y-195164757D02*
X179958026Y-195236185D01*
X179958026Y-195236185D02*
X180029455Y-195164757D01*
X180029455Y-195164757D02*
X179958026Y-195093328D01*
X179958026Y-195093328D02*
X179958026Y-195236185D01*
X181529455Y-196450471D02*
X181458027Y-196521900D01*
X181458027Y-196521900D02*
X181243741Y-196593328D01*
X181243741Y-196593328D02*
X181100884Y-196593328D01*
X181100884Y-196593328D02*
X180886598Y-196521900D01*
X180886598Y-196521900D02*
X180743741Y-196379042D01*
X180743741Y-196379042D02*
X180672312Y-196236185D01*
X180672312Y-196236185D02*
X180600884Y-195950471D01*
X180600884Y-195950471D02*
X180600884Y-195736185D01*
X180600884Y-195736185D02*
X180672312Y-195450471D01*
X180672312Y-195450471D02*
X180743741Y-195307614D01*
X180743741Y-195307614D02*
X180886598Y-195164757D01*
X180886598Y-195164757D02*
X181100884Y-195093328D01*
X181100884Y-195093328D02*
X181243741Y-195093328D01*
X181243741Y-195093328D02*
X181458027Y-195164757D01*
X181458027Y-195164757D02*
X181529455Y-195236185D01*
X182815170Y-196593328D02*
X182815170Y-195807614D01*
X182815170Y-195807614D02*
X182743741Y-195664757D01*
X182743741Y-195664757D02*
X182600884Y-195593328D01*
X182600884Y-195593328D02*
X182315170Y-195593328D01*
X182315170Y-195593328D02*
X182172312Y-195664757D01*
X182815170Y-196521900D02*
X182672312Y-196593328D01*
X182672312Y-196593328D02*
X182315170Y-196593328D01*
X182315170Y-196593328D02*
X182172312Y-196521900D01*
X182172312Y-196521900D02*
X182100884Y-196379042D01*
X182100884Y-196379042D02*
X182100884Y-196236185D01*
X182100884Y-196236185D02*
X182172312Y-196093328D01*
X182172312Y-196093328D02*
X182315170Y-196021900D01*
X182315170Y-196021900D02*
X182672312Y-196021900D01*
X182672312Y-196021900D02*
X182815170Y-195950471D01*
X184172313Y-196593328D02*
X184172313Y-195093328D01*
X184172313Y-196521900D02*
X184029455Y-196593328D01*
X184029455Y-196593328D02*
X183743741Y-196593328D01*
X183743741Y-196593328D02*
X183600884Y-196521900D01*
X183600884Y-196521900D02*
X183529455Y-196450471D01*
X183529455Y-196450471D02*
X183458027Y-196307614D01*
X183458027Y-196307614D02*
X183458027Y-195879042D01*
X183458027Y-195879042D02*
X183529455Y-195736185D01*
X183529455Y-195736185D02*
X183600884Y-195664757D01*
X183600884Y-195664757D02*
X183743741Y-195593328D01*
X183743741Y-195593328D02*
X184029455Y-195593328D01*
X184029455Y-195593328D02*
X184172313Y-195664757D01*
X186029455Y-195807614D02*
X186529455Y-195807614D01*
X186743741Y-196593328D02*
X186029455Y-196593328D01*
X186029455Y-196593328D02*
X186029455Y-195093328D01*
X186029455Y-195093328D02*
X186743741Y-195093328D01*
X187386598Y-196450471D02*
X187458027Y-196521900D01*
X187458027Y-196521900D02*
X187386598Y-196593328D01*
X187386598Y-196593328D02*
X187315170Y-196521900D01*
X187315170Y-196521900D02*
X187386598Y-196450471D01*
X187386598Y-196450471D02*
X187386598Y-196593328D01*
X188100884Y-196593328D02*
X188100884Y-195093328D01*
X188100884Y-195093328D02*
X188458027Y-195093328D01*
X188458027Y-195093328D02*
X188672313Y-195164757D01*
X188672313Y-195164757D02*
X188815170Y-195307614D01*
X188815170Y-195307614D02*
X188886599Y-195450471D01*
X188886599Y-195450471D02*
X188958027Y-195736185D01*
X188958027Y-195736185D02*
X188958027Y-195950471D01*
X188958027Y-195950471D02*
X188886599Y-196236185D01*
X188886599Y-196236185D02*
X188815170Y-196379042D01*
X188815170Y-196379042D02*
X188672313Y-196521900D01*
X188672313Y-196521900D02*
X188458027Y-196593328D01*
X188458027Y-196593328D02*
X188100884Y-196593328D01*
X189600884Y-196450471D02*
X189672313Y-196521900D01*
X189672313Y-196521900D02*
X189600884Y-196593328D01*
X189600884Y-196593328D02*
X189529456Y-196521900D01*
X189529456Y-196521900D02*
X189600884Y-196450471D01*
X189600884Y-196450471D02*
X189600884Y-196593328D01*
X190243742Y-196164757D02*
X190958028Y-196164757D01*
X190100885Y-196593328D02*
X190600885Y-195093328D01*
X190600885Y-195093328D02*
X191100885Y-196593328D01*
X191600884Y-196450471D02*
X191672313Y-196521900D01*
X191672313Y-196521900D02*
X191600884Y-196593328D01*
X191600884Y-196593328D02*
X191529456Y-196521900D01*
X191529456Y-196521900D02*
X191600884Y-196450471D01*
X191600884Y-196450471D02*
X191600884Y-196593328D01*
X194600884Y-196593328D02*
X194600884Y-195093328D01*
X194743742Y-196021900D02*
X195172313Y-196593328D01*
X195172313Y-195593328D02*
X194600884Y-196164757D01*
X195815170Y-196593328D02*
X195815170Y-195593328D01*
X195815170Y-195093328D02*
X195743742Y-195164757D01*
X195743742Y-195164757D02*
X195815170Y-195236185D01*
X195815170Y-195236185D02*
X195886599Y-195164757D01*
X195886599Y-195164757D02*
X195815170Y-195093328D01*
X195815170Y-195093328D02*
X195815170Y-195236185D01*
X197172314Y-196521900D02*
X197029456Y-196593328D01*
X197029456Y-196593328D02*
X196743742Y-196593328D01*
X196743742Y-196593328D02*
X196600885Y-196521900D01*
X196600885Y-196521900D02*
X196529456Y-196450471D01*
X196529456Y-196450471D02*
X196458028Y-196307614D01*
X196458028Y-196307614D02*
X196458028Y-195879042D01*
X196458028Y-195879042D02*
X196529456Y-195736185D01*
X196529456Y-195736185D02*
X196600885Y-195664757D01*
X196600885Y-195664757D02*
X196743742Y-195593328D01*
X196743742Y-195593328D02*
X197029456Y-195593328D01*
X197029456Y-195593328D02*
X197172314Y-195664757D01*
X198458028Y-196593328D02*
X198458028Y-195807614D01*
X198458028Y-195807614D02*
X198386599Y-195664757D01*
X198386599Y-195664757D02*
X198243742Y-195593328D01*
X198243742Y-195593328D02*
X197958028Y-195593328D01*
X197958028Y-195593328D02*
X197815170Y-195664757D01*
X198458028Y-196521900D02*
X198315170Y-196593328D01*
X198315170Y-196593328D02*
X197958028Y-196593328D01*
X197958028Y-196593328D02*
X197815170Y-196521900D01*
X197815170Y-196521900D02*
X197743742Y-196379042D01*
X197743742Y-196379042D02*
X197743742Y-196236185D01*
X197743742Y-196236185D02*
X197815170Y-196093328D01*
X197815170Y-196093328D02*
X197958028Y-196021900D01*
X197958028Y-196021900D02*
X198315170Y-196021900D01*
X198315170Y-196021900D02*
X198458028Y-195950471D01*
X199815171Y-196593328D02*
X199815171Y-195093328D01*
X199815171Y-196521900D02*
X199672313Y-196593328D01*
X199672313Y-196593328D02*
X199386599Y-196593328D01*
X199386599Y-196593328D02*
X199243742Y-196521900D01*
X199243742Y-196521900D02*
X199172313Y-196450471D01*
X199172313Y-196450471D02*
X199100885Y-196307614D01*
X199100885Y-196307614D02*
X199100885Y-195879042D01*
X199100885Y-195879042D02*
X199172313Y-195736185D01*
X199172313Y-195736185D02*
X199243742Y-195664757D01*
X199243742Y-195664757D02*
X199386599Y-195593328D01*
X199386599Y-195593328D02*
X199672313Y-195593328D01*
X199672313Y-195593328D02*
X199815171Y-195664757D01*
X201529456Y-195093328D02*
X202529456Y-195093328D01*
X202529456Y-195093328D02*
X201886599Y-196593328D01*
X203100884Y-196450471D02*
X203172313Y-196521900D01*
X203172313Y-196521900D02*
X203100884Y-196593328D01*
X203100884Y-196593328D02*
X203029456Y-196521900D01*
X203029456Y-196521900D02*
X203100884Y-196450471D01*
X203100884Y-196450471D02*
X203100884Y-196593328D01*
X204100885Y-195093328D02*
X204243742Y-195093328D01*
X204243742Y-195093328D02*
X204386599Y-195164757D01*
X204386599Y-195164757D02*
X204458028Y-195236185D01*
X204458028Y-195236185D02*
X204529456Y-195379042D01*
X204529456Y-195379042D02*
X204600885Y-195664757D01*
X204600885Y-195664757D02*
X204600885Y-196021900D01*
X204600885Y-196021900D02*
X204529456Y-196307614D01*
X204529456Y-196307614D02*
X204458028Y-196450471D01*
X204458028Y-196450471D02*
X204386599Y-196521900D01*
X204386599Y-196521900D02*
X204243742Y-196593328D01*
X204243742Y-196593328D02*
X204100885Y-196593328D01*
X204100885Y-196593328D02*
X203958028Y-196521900D01*
X203958028Y-196521900D02*
X203886599Y-196450471D01*
X203886599Y-196450471D02*
X203815170Y-196307614D01*
X203815170Y-196307614D02*
X203743742Y-196021900D01*
X203743742Y-196021900D02*
X203743742Y-195664757D01*
X203743742Y-195664757D02*
X203815170Y-195379042D01*
X203815170Y-195379042D02*
X203886599Y-195236185D01*
X203886599Y-195236185D02*
X203958028Y-195164757D01*
X203958028Y-195164757D02*
X204100885Y-195093328D01*
X205243741Y-196450471D02*
X205315170Y-196521900D01*
X205315170Y-196521900D02*
X205243741Y-196593328D01*
X205243741Y-196593328D02*
X205172313Y-196521900D01*
X205172313Y-196521900D02*
X205243741Y-196450471D01*
X205243741Y-196450471D02*
X205243741Y-196593328D01*
X206672313Y-195093328D02*
X205958027Y-195093328D01*
X205958027Y-195093328D02*
X205886599Y-195807614D01*
X205886599Y-195807614D02*
X205958027Y-195736185D01*
X205958027Y-195736185D02*
X206100885Y-195664757D01*
X206100885Y-195664757D02*
X206458027Y-195664757D01*
X206458027Y-195664757D02*
X206600885Y-195736185D01*
X206600885Y-195736185D02*
X206672313Y-195807614D01*
X206672313Y-195807614D02*
X206743742Y-195950471D01*
X206743742Y-195950471D02*
X206743742Y-196307614D01*
X206743742Y-196307614D02*
X206672313Y-196450471D01*
X206672313Y-196450471D02*
X206600885Y-196521900D01*
X206600885Y-196521900D02*
X206458027Y-196593328D01*
X206458027Y-196593328D02*
X206100885Y-196593328D01*
X206100885Y-196593328D02*
X205958027Y-196521900D01*
X205958027Y-196521900D02*
X205886599Y-196450471D01*
X207386598Y-196021900D02*
X208529456Y-196021900D01*
X209100884Y-195093328D02*
X210100884Y-195093328D01*
X210100884Y-195093328D02*
X209458027Y-196593328D01*
X210672312Y-196450471D02*
X210743741Y-196521900D01*
X210743741Y-196521900D02*
X210672312Y-196593328D01*
X210672312Y-196593328D02*
X210600884Y-196521900D01*
X210600884Y-196521900D02*
X210672312Y-196450471D01*
X210672312Y-196450471D02*
X210672312Y-196593328D01*
X211672313Y-195093328D02*
X211815170Y-195093328D01*
X211815170Y-195093328D02*
X211958027Y-195164757D01*
X211958027Y-195164757D02*
X212029456Y-195236185D01*
X212029456Y-195236185D02*
X212100884Y-195379042D01*
X212100884Y-195379042D02*
X212172313Y-195664757D01*
X212172313Y-195664757D02*
X212172313Y-196021900D01*
X212172313Y-196021900D02*
X212100884Y-196307614D01*
X212100884Y-196307614D02*
X212029456Y-196450471D01*
X212029456Y-196450471D02*
X211958027Y-196521900D01*
X211958027Y-196521900D02*
X211815170Y-196593328D01*
X211815170Y-196593328D02*
X211672313Y-196593328D01*
X211672313Y-196593328D02*
X211529456Y-196521900D01*
X211529456Y-196521900D02*
X211458027Y-196450471D01*
X211458027Y-196450471D02*
X211386598Y-196307614D01*
X211386598Y-196307614D02*
X211315170Y-196021900D01*
X211315170Y-196021900D02*
X211315170Y-195664757D01*
X211315170Y-195664757D02*
X211386598Y-195379042D01*
X211386598Y-195379042D02*
X211458027Y-195236185D01*
X211458027Y-195236185D02*
X211529456Y-195164757D01*
X211529456Y-195164757D02*
X211672313Y-195093328D01*
X212815169Y-196450471D02*
X212886598Y-196521900D01*
X212886598Y-196521900D02*
X212815169Y-196593328D01*
X212815169Y-196593328D02*
X212743741Y-196521900D01*
X212743741Y-196521900D02*
X212815169Y-196450471D01*
X212815169Y-196450471D02*
X212815169Y-196593328D01*
X214243741Y-195093328D02*
X213529455Y-195093328D01*
X213529455Y-195093328D02*
X213458027Y-195807614D01*
X213458027Y-195807614D02*
X213529455Y-195736185D01*
X213529455Y-195736185D02*
X213672313Y-195664757D01*
X213672313Y-195664757D02*
X214029455Y-195664757D01*
X214029455Y-195664757D02*
X214172313Y-195736185D01*
X214172313Y-195736185D02*
X214243741Y-195807614D01*
X214243741Y-195807614D02*
X214315170Y-195950471D01*
X214315170Y-195950471D02*
X214315170Y-196307614D01*
X214315170Y-196307614D02*
X214243741Y-196450471D01*
X214243741Y-196450471D02*
X214172313Y-196521900D01*
X214172313Y-196521900D02*
X214029455Y-196593328D01*
X214029455Y-196593328D02*
X213672313Y-196593328D01*
X213672313Y-196593328D02*
X213529455Y-196521900D01*
X213529455Y-196521900D02*
X213458027Y-196450471D01*
X214743741Y-196021900D02*
X214815169Y-195950471D01*
X214815169Y-195950471D02*
X214958026Y-195879042D01*
X214958026Y-195879042D02*
X215243741Y-196021900D01*
X215243741Y-196021900D02*
X215386598Y-195950471D01*
X215386598Y-195950471D02*
X215458026Y-195879042D01*
X216672313Y-195593328D02*
X216672313Y-196593328D01*
X216029455Y-195593328D02*
X216029455Y-196379042D01*
X216029455Y-196379042D02*
X216100884Y-196521900D01*
X216100884Y-196521900D02*
X216243741Y-196593328D01*
X216243741Y-196593328D02*
X216458027Y-196593328D01*
X216458027Y-196593328D02*
X216600884Y-196521900D01*
X216600884Y-196521900D02*
X216672313Y-196450471D01*
X217386598Y-196593328D02*
X217386598Y-195093328D01*
X217386598Y-195664757D02*
X217529456Y-195593328D01*
X217529456Y-195593328D02*
X217815170Y-195593328D01*
X217815170Y-195593328D02*
X217958027Y-195664757D01*
X217958027Y-195664757D02*
X218029456Y-195736185D01*
X218029456Y-195736185D02*
X218100884Y-195879042D01*
X218100884Y-195879042D02*
X218100884Y-196307614D01*
X218100884Y-196307614D02*
X218029456Y-196450471D01*
X218029456Y-196450471D02*
X217958027Y-196521900D01*
X217958027Y-196521900D02*
X217815170Y-196593328D01*
X217815170Y-196593328D02*
X217529456Y-196593328D01*
X217529456Y-196593328D02*
X217386598Y-196521900D01*
X219386599Y-195593328D02*
X219386599Y-196593328D01*
X218743741Y-195593328D02*
X218743741Y-196379042D01*
X218743741Y-196379042D02*
X218815170Y-196521900D01*
X218815170Y-196521900D02*
X218958027Y-196593328D01*
X218958027Y-196593328D02*
X219172313Y-196593328D01*
X219172313Y-196593328D02*
X219315170Y-196521900D01*
X219315170Y-196521900D02*
X219386599Y-196450471D01*
X220100884Y-195593328D02*
X220100884Y-196593328D01*
X220100884Y-195736185D02*
X220172313Y-195664757D01*
X220172313Y-195664757D02*
X220315170Y-195593328D01*
X220315170Y-195593328D02*
X220529456Y-195593328D01*
X220529456Y-195593328D02*
X220672313Y-195664757D01*
X220672313Y-195664757D02*
X220743742Y-195807614D01*
X220743742Y-195807614D02*
X220743742Y-196593328D01*
X221243742Y-195593328D02*
X221815170Y-195593328D01*
X221458027Y-195093328D02*
X221458027Y-196379042D01*
X221458027Y-196379042D02*
X221529456Y-196521900D01*
X221529456Y-196521900D02*
X221672313Y-196593328D01*
X221672313Y-196593328D02*
X221815170Y-196593328D01*
X222958028Y-195593328D02*
X222958028Y-196593328D01*
X222315170Y-195593328D02*
X222315170Y-196379042D01*
X222315170Y-196379042D02*
X222386599Y-196521900D01*
X222386599Y-196521900D02*
X222529456Y-196593328D01*
X222529456Y-196593328D02*
X222743742Y-196593328D01*
X222743742Y-196593328D02*
X222886599Y-196521900D01*
X222886599Y-196521900D02*
X222958028Y-196450471D01*
X223600885Y-195236185D02*
X223672313Y-195164757D01*
X223672313Y-195164757D02*
X223815171Y-195093328D01*
X223815171Y-195093328D02*
X224172313Y-195093328D01*
X224172313Y-195093328D02*
X224315171Y-195164757D01*
X224315171Y-195164757D02*
X224386599Y-195236185D01*
X224386599Y-195236185D02*
X224458028Y-195379042D01*
X224458028Y-195379042D02*
X224458028Y-195521900D01*
X224458028Y-195521900D02*
X224386599Y-195736185D01*
X224386599Y-195736185D02*
X223529456Y-196593328D01*
X223529456Y-196593328D02*
X224458028Y-196593328D01*
X225029456Y-195236185D02*
X225100884Y-195164757D01*
X225100884Y-195164757D02*
X225243742Y-195093328D01*
X225243742Y-195093328D02*
X225600884Y-195093328D01*
X225600884Y-195093328D02*
X225743742Y-195164757D01*
X225743742Y-195164757D02*
X225815170Y-195236185D01*
X225815170Y-195236185D02*
X225886599Y-195379042D01*
X225886599Y-195379042D02*
X225886599Y-195521900D01*
X225886599Y-195521900D02*
X225815170Y-195736185D01*
X225815170Y-195736185D02*
X224958027Y-196593328D01*
X224958027Y-196593328D02*
X225886599Y-196593328D01*
X226529455Y-196450471D02*
X226600884Y-196521900D01*
X226600884Y-196521900D02*
X226529455Y-196593328D01*
X226529455Y-196593328D02*
X226458027Y-196521900D01*
X226458027Y-196521900D02*
X226529455Y-196450471D01*
X226529455Y-196450471D02*
X226529455Y-196593328D01*
X227529456Y-195093328D02*
X227672313Y-195093328D01*
X227672313Y-195093328D02*
X227815170Y-195164757D01*
X227815170Y-195164757D02*
X227886599Y-195236185D01*
X227886599Y-195236185D02*
X227958027Y-195379042D01*
X227958027Y-195379042D02*
X228029456Y-195664757D01*
X228029456Y-195664757D02*
X228029456Y-196021900D01*
X228029456Y-196021900D02*
X227958027Y-196307614D01*
X227958027Y-196307614D02*
X227886599Y-196450471D01*
X227886599Y-196450471D02*
X227815170Y-196521900D01*
X227815170Y-196521900D02*
X227672313Y-196593328D01*
X227672313Y-196593328D02*
X227529456Y-196593328D01*
X227529456Y-196593328D02*
X227386599Y-196521900D01*
X227386599Y-196521900D02*
X227315170Y-196450471D01*
X227315170Y-196450471D02*
X227243741Y-196307614D01*
X227243741Y-196307614D02*
X227172313Y-196021900D01*
X227172313Y-196021900D02*
X227172313Y-195664757D01*
X227172313Y-195664757D02*
X227243741Y-195379042D01*
X227243741Y-195379042D02*
X227315170Y-195236185D01*
X227315170Y-195236185D02*
X227386599Y-195164757D01*
X227386599Y-195164757D02*
X227529456Y-195093328D01*
X229315170Y-195593328D02*
X229315170Y-196593328D01*
X228958027Y-195021900D02*
X228600884Y-196093328D01*
X228600884Y-196093328D02*
X229529455Y-196093328D01*
X230100883Y-196450471D02*
X230172312Y-196521900D01*
X230172312Y-196521900D02*
X230100883Y-196593328D01*
X230100883Y-196593328D02*
X230029455Y-196521900D01*
X230029455Y-196521900D02*
X230100883Y-196450471D01*
X230100883Y-196450471D02*
X230100883Y-196593328D01*
X231600884Y-196593328D02*
X230743741Y-196593328D01*
X231172312Y-196593328D02*
X231172312Y-195093328D01*
X231172312Y-195093328D02*
X231029455Y-195307614D01*
X231029455Y-195307614D02*
X230886598Y-195450471D01*
X230886598Y-195450471D02*
X230743741Y-195521900D01*
D10*
D11*
X177002200Y-191507200D02*
X285002200Y-191507200D01*
D10*
D12*
X264413853Y-193785528D02*
X263913853Y-193071242D01*
X263556710Y-193785528D02*
X263556710Y-192285528D01*
X263556710Y-192285528D02*
X264128139Y-192285528D01*
X264128139Y-192285528D02*
X264270996Y-192356957D01*
X264270996Y-192356957D02*
X264342425Y-192428385D01*
X264342425Y-192428385D02*
X264413853Y-192571242D01*
X264413853Y-192571242D02*
X264413853Y-192785528D01*
X264413853Y-192785528D02*
X264342425Y-192928385D01*
X264342425Y-192928385D02*
X264270996Y-192999814D01*
X264270996Y-192999814D02*
X264128139Y-193071242D01*
X264128139Y-193071242D02*
X263556710Y-193071242D01*
X265628139Y-193714100D02*
X265485282Y-193785528D01*
X265485282Y-193785528D02*
X265199568Y-193785528D01*
X265199568Y-193785528D02*
X265056710Y-193714100D01*
X265056710Y-193714100D02*
X264985282Y-193571242D01*
X264985282Y-193571242D02*
X264985282Y-192999814D01*
X264985282Y-192999814D02*
X265056710Y-192856957D01*
X265056710Y-192856957D02*
X265199568Y-192785528D01*
X265199568Y-192785528D02*
X265485282Y-192785528D01*
X265485282Y-192785528D02*
X265628139Y-192856957D01*
X265628139Y-192856957D02*
X265699568Y-192999814D01*
X265699568Y-192999814D02*
X265699568Y-193142671D01*
X265699568Y-193142671D02*
X264985282Y-193285528D01*
X266199567Y-192785528D02*
X266556710Y-193785528D01*
X266556710Y-193785528D02*
X266913853Y-192785528D01*
X267485281Y-193642671D02*
X267556710Y-193714100D01*
X267556710Y-193714100D02*
X267485281Y-193785528D01*
X267485281Y-193785528D02*
X267413853Y-193714100D01*
X267413853Y-193714100D02*
X267485281Y-193642671D01*
X267485281Y-193642671D02*
X267485281Y-193785528D01*
X267485281Y-192856957D02*
X267556710Y-192928385D01*
X267556710Y-192928385D02*
X267485281Y-192999814D01*
X267485281Y-192999814D02*
X267413853Y-192928385D01*
X267413853Y-192928385D02*
X267485281Y-192856957D01*
X267485281Y-192856957D02*
X267485281Y-192999814D01*
D10*
D11*
X178386598Y-193721900D02*
X178600884Y-193793328D01*
X178600884Y-193793328D02*
X178958026Y-193793328D01*
X178958026Y-193793328D02*
X179100884Y-193721900D01*
X179100884Y-193721900D02*
X179172312Y-193650471D01*
X179172312Y-193650471D02*
X179243741Y-193507614D01*
X179243741Y-193507614D02*
X179243741Y-193364757D01*
X179243741Y-193364757D02*
X179172312Y-193221900D01*
X179172312Y-193221900D02*
X179100884Y-193150471D01*
X179100884Y-193150471D02*
X178958026Y-193079042D01*
X178958026Y-193079042D02*
X178672312Y-193007614D01*
X178672312Y-193007614D02*
X178529455Y-192936185D01*
X178529455Y-192936185D02*
X178458026Y-192864757D01*
X178458026Y-192864757D02*
X178386598Y-192721900D01*
X178386598Y-192721900D02*
X178386598Y-192579042D01*
X178386598Y-192579042D02*
X178458026Y-192436185D01*
X178458026Y-192436185D02*
X178529455Y-192364757D01*
X178529455Y-192364757D02*
X178672312Y-192293328D01*
X178672312Y-192293328D02*
X179029455Y-192293328D01*
X179029455Y-192293328D02*
X179243741Y-192364757D01*
X179886597Y-193793328D02*
X179886597Y-192793328D01*
X179886597Y-192293328D02*
X179815169Y-192364757D01*
X179815169Y-192364757D02*
X179886597Y-192436185D01*
X179886597Y-192436185D02*
X179958026Y-192364757D01*
X179958026Y-192364757D02*
X179886597Y-192293328D01*
X179886597Y-192293328D02*
X179886597Y-192436185D01*
X180458026Y-192793328D02*
X181243741Y-192793328D01*
X181243741Y-192793328D02*
X180458026Y-193793328D01*
X180458026Y-193793328D02*
X181243741Y-193793328D01*
X182386598Y-193721900D02*
X182243741Y-193793328D01*
X182243741Y-193793328D02*
X181958027Y-193793328D01*
X181958027Y-193793328D02*
X181815169Y-193721900D01*
X181815169Y-193721900D02*
X181743741Y-193579042D01*
X181743741Y-193579042D02*
X181743741Y-193007614D01*
X181743741Y-193007614D02*
X181815169Y-192864757D01*
X181815169Y-192864757D02*
X181958027Y-192793328D01*
X181958027Y-192793328D02*
X182243741Y-192793328D01*
X182243741Y-192793328D02*
X182386598Y-192864757D01*
X182386598Y-192864757D02*
X182458027Y-193007614D01*
X182458027Y-193007614D02*
X182458027Y-193150471D01*
X182458027Y-193150471D02*
X181743741Y-193293328D01*
X183100883Y-193650471D02*
X183172312Y-193721900D01*
X183172312Y-193721900D02*
X183100883Y-193793328D01*
X183100883Y-193793328D02*
X183029455Y-193721900D01*
X183029455Y-193721900D02*
X183100883Y-193650471D01*
X183100883Y-193650471D02*
X183100883Y-193793328D01*
X183100883Y-192864757D02*
X183172312Y-192936185D01*
X183172312Y-192936185D02*
X183100883Y-193007614D01*
X183100883Y-193007614D02*
X183029455Y-192936185D01*
X183029455Y-192936185D02*
X183100883Y-192864757D01*
X183100883Y-192864757D02*
X183100883Y-193007614D01*
X184886598Y-193364757D02*
X185600884Y-193364757D01*
X184743741Y-193793328D02*
X185243741Y-192293328D01*
X185243741Y-192293328D02*
X185743741Y-193793328D01*
X186886598Y-192793328D02*
X186886598Y-193793328D01*
X186529455Y-192221900D02*
X186172312Y-193293328D01*
X186172312Y-193293328D02*
X187100883Y-193293328D01*
D10*
D11*
X263458026Y-196593328D02*
X263458026Y-195093328D01*
X264815170Y-196593328D02*
X264815170Y-195093328D01*
X264815170Y-196521900D02*
X264672312Y-196593328D01*
X264672312Y-196593328D02*
X264386598Y-196593328D01*
X264386598Y-196593328D02*
X264243741Y-196521900D01*
X264243741Y-196521900D02*
X264172312Y-196450471D01*
X264172312Y-196450471D02*
X264100884Y-196307614D01*
X264100884Y-196307614D02*
X264100884Y-195879042D01*
X264100884Y-195879042D02*
X264172312Y-195736185D01*
X264172312Y-195736185D02*
X264243741Y-195664757D01*
X264243741Y-195664757D02*
X264386598Y-195593328D01*
X264386598Y-195593328D02*
X264672312Y-195593328D01*
X264672312Y-195593328D02*
X264815170Y-195664757D01*
X265529455Y-196450471D02*
X265600884Y-196521900D01*
X265600884Y-196521900D02*
X265529455Y-196593328D01*
X265529455Y-196593328D02*
X265458027Y-196521900D01*
X265458027Y-196521900D02*
X265529455Y-196450471D01*
X265529455Y-196450471D02*
X265529455Y-196593328D01*
X265529455Y-195664757D02*
X265600884Y-195736185D01*
X265600884Y-195736185D02*
X265529455Y-195807614D01*
X265529455Y-195807614D02*
X265458027Y-195736185D01*
X265458027Y-195736185D02*
X265529455Y-195664757D01*
X265529455Y-195664757D02*
X265529455Y-195807614D01*
X268172313Y-196593328D02*
X267315170Y-196593328D01*
X267743741Y-196593328D02*
X267743741Y-195093328D01*
X267743741Y-195093328D02*
X267600884Y-195307614D01*
X267600884Y-195307614D02*
X267458027Y-195450471D01*
X267458027Y-195450471D02*
X267315170Y-195521900D01*
X269886598Y-195021900D02*
X268600884Y-196950471D01*
X271172313Y-196593328D02*
X270315170Y-196593328D01*
X270743741Y-196593328D02*
X270743741Y-195093328D01*
X270743741Y-195093328D02*
X270600884Y-195307614D01*
X270600884Y-195307614D02*
X270458027Y-195450471D01*
X270458027Y-195450471D02*
X270315170Y-195521900D01*
D10*
D11*
X177002200Y-187507200D02*
X285002200Y-187507200D01*
D10*
D13*
X178693928Y-188211638D02*
X179836785Y-188211638D01*
X179015357Y-190211638D02*
X179265357Y-188211638D01*
X180253452Y-190211638D02*
X180420119Y-188878304D01*
X180503452Y-188211638D02*
X180396309Y-188306876D01*
X180396309Y-188306876D02*
X180479643Y-188402114D01*
X180479643Y-188402114D02*
X180586786Y-188306876D01*
X180586786Y-188306876D02*
X180503452Y-188211638D01*
X180503452Y-188211638D02*
X180479643Y-188402114D01*
X181086786Y-188878304D02*
X181848690Y-188878304D01*
X181455833Y-188211638D02*
X181241548Y-189925923D01*
X181241548Y-189925923D02*
X181312976Y-190116400D01*
X181312976Y-190116400D02*
X181491548Y-190211638D01*
X181491548Y-190211638D02*
X181682024Y-190211638D01*
X182634405Y-190211638D02*
X182455833Y-190116400D01*
X182455833Y-190116400D02*
X182384405Y-189925923D01*
X182384405Y-189925923D02*
X182598690Y-188211638D01*
X184170119Y-190116400D02*
X183967738Y-190211638D01*
X183967738Y-190211638D02*
X183586785Y-190211638D01*
X183586785Y-190211638D02*
X183408214Y-190116400D01*
X183408214Y-190116400D02*
X183336785Y-189925923D01*
X183336785Y-189925923D02*
X183432024Y-189164019D01*
X183432024Y-189164019D02*
X183551071Y-188973542D01*
X183551071Y-188973542D02*
X183753452Y-188878304D01*
X183753452Y-188878304D02*
X184134404Y-188878304D01*
X184134404Y-188878304D02*
X184312976Y-188973542D01*
X184312976Y-188973542D02*
X184384404Y-189164019D01*
X184384404Y-189164019D02*
X184360595Y-189354495D01*
X184360595Y-189354495D02*
X183384404Y-189544971D01*
X185134405Y-190021161D02*
X185217738Y-190116400D01*
X185217738Y-190116400D02*
X185110595Y-190211638D01*
X185110595Y-190211638D02*
X185027262Y-190116400D01*
X185027262Y-190116400D02*
X185134405Y-190021161D01*
X185134405Y-190021161D02*
X185110595Y-190211638D01*
X185265357Y-188973542D02*
X185348690Y-189068780D01*
X185348690Y-189068780D02*
X185241548Y-189164019D01*
X185241548Y-189164019D02*
X185158214Y-189068780D01*
X185158214Y-189068780D02*
X185265357Y-188973542D01*
X185265357Y-188973542D02*
X185241548Y-189164019D01*
D10*
D11*
X178958026Y-185607614D02*
X178458026Y-185607614D01*
X178458026Y-186393328D02*
X178458026Y-184893328D01*
X178458026Y-184893328D02*
X179172312Y-184893328D01*
X179743740Y-186393328D02*
X179743740Y-185393328D01*
X179743740Y-184893328D02*
X179672312Y-184964757D01*
X179672312Y-184964757D02*
X179743740Y-185036185D01*
X179743740Y-185036185D02*
X179815169Y-184964757D01*
X179815169Y-184964757D02*
X179743740Y-184893328D01*
X179743740Y-184893328D02*
X179743740Y-185036185D01*
X180672312Y-186393328D02*
X180529455Y-186321900D01*
X180529455Y-186321900D02*
X180458026Y-186179042D01*
X180458026Y-186179042D02*
X180458026Y-184893328D01*
X181815169Y-186321900D02*
X181672312Y-186393328D01*
X181672312Y-186393328D02*
X181386598Y-186393328D01*
X181386598Y-186393328D02*
X181243740Y-186321900D01*
X181243740Y-186321900D02*
X181172312Y-186179042D01*
X181172312Y-186179042D02*
X181172312Y-185607614D01*
X181172312Y-185607614D02*
X181243740Y-185464757D01*
X181243740Y-185464757D02*
X181386598Y-185393328D01*
X181386598Y-185393328D02*
X181672312Y-185393328D01*
X181672312Y-185393328D02*
X181815169Y-185464757D01*
X181815169Y-185464757D02*
X181886598Y-185607614D01*
X181886598Y-185607614D02*
X181886598Y-185750471D01*
X181886598Y-185750471D02*
X181172312Y-185893328D01*
X182529454Y-186250471D02*
X182600883Y-186321900D01*
X182600883Y-186321900D02*
X182529454Y-186393328D01*
X182529454Y-186393328D02*
X182458026Y-186321900D01*
X182458026Y-186321900D02*
X182529454Y-186250471D01*
X182529454Y-186250471D02*
X182529454Y-186393328D01*
X182529454Y-185464757D02*
X182600883Y-185536185D01*
X182600883Y-185536185D02*
X182529454Y-185607614D01*
X182529454Y-185607614D02*
X182458026Y-185536185D01*
X182458026Y-185536185D02*
X182529454Y-185464757D01*
X182529454Y-185464757D02*
X182529454Y-185607614D01*
X185243740Y-186250471D02*
X185172312Y-186321900D01*
X185172312Y-186321900D02*
X184958026Y-186393328D01*
X184958026Y-186393328D02*
X184815169Y-186393328D01*
X184815169Y-186393328D02*
X184600883Y-186321900D01*
X184600883Y-186321900D02*
X184458026Y-186179042D01*
X184458026Y-186179042D02*
X184386597Y-186036185D01*
X184386597Y-186036185D02*
X184315169Y-185750471D01*
X184315169Y-185750471D02*
X184315169Y-185536185D01*
X184315169Y-185536185D02*
X184386597Y-185250471D01*
X184386597Y-185250471D02*
X184458026Y-185107614D01*
X184458026Y-185107614D02*
X184600883Y-184964757D01*
X184600883Y-184964757D02*
X184815169Y-184893328D01*
X184815169Y-184893328D02*
X184958026Y-184893328D01*
X184958026Y-184893328D02*
X185172312Y-184964757D01*
X185172312Y-184964757D02*
X185243740Y-185036185D01*
X186100883Y-186393328D02*
X185958026Y-186321900D01*
X185958026Y-186321900D02*
X185886597Y-186250471D01*
X185886597Y-186250471D02*
X185815169Y-186107614D01*
X185815169Y-186107614D02*
X185815169Y-185679042D01*
X185815169Y-185679042D02*
X185886597Y-185536185D01*
X185886597Y-185536185D02*
X185958026Y-185464757D01*
X185958026Y-185464757D02*
X186100883Y-185393328D01*
X186100883Y-185393328D02*
X186315169Y-185393328D01*
X186315169Y-185393328D02*
X186458026Y-185464757D01*
X186458026Y-185464757D02*
X186529455Y-185536185D01*
X186529455Y-185536185D02*
X186600883Y-185679042D01*
X186600883Y-185679042D02*
X186600883Y-186107614D01*
X186600883Y-186107614D02*
X186529455Y-186250471D01*
X186529455Y-186250471D02*
X186458026Y-186321900D01*
X186458026Y-186321900D02*
X186315169Y-186393328D01*
X186315169Y-186393328D02*
X186100883Y-186393328D01*
X187243740Y-185393328D02*
X187243740Y-186393328D01*
X187243740Y-185536185D02*
X187315169Y-185464757D01*
X187315169Y-185464757D02*
X187458026Y-185393328D01*
X187458026Y-185393328D02*
X187672312Y-185393328D01*
X187672312Y-185393328D02*
X187815169Y-185464757D01*
X187815169Y-185464757D02*
X187886598Y-185607614D01*
X187886598Y-185607614D02*
X187886598Y-186393328D01*
X188386598Y-185393328D02*
X188958026Y-185393328D01*
X188600883Y-184893328D02*
X188600883Y-186179042D01*
X188600883Y-186179042D02*
X188672312Y-186321900D01*
X188672312Y-186321900D02*
X188815169Y-186393328D01*
X188815169Y-186393328D02*
X188958026Y-186393328D01*
X189458026Y-186393328D02*
X189458026Y-185393328D01*
X189458026Y-185679042D02*
X189529455Y-185536185D01*
X189529455Y-185536185D02*
X189600884Y-185464757D01*
X189600884Y-185464757D02*
X189743741Y-185393328D01*
X189743741Y-185393328D02*
X189886598Y-185393328D01*
X190600883Y-186393328D02*
X190458026Y-186321900D01*
X190458026Y-186321900D02*
X190386597Y-186250471D01*
X190386597Y-186250471D02*
X190315169Y-186107614D01*
X190315169Y-186107614D02*
X190315169Y-185679042D01*
X190315169Y-185679042D02*
X190386597Y-185536185D01*
X190386597Y-185536185D02*
X190458026Y-185464757D01*
X190458026Y-185464757D02*
X190600883Y-185393328D01*
X190600883Y-185393328D02*
X190815169Y-185393328D01*
X190815169Y-185393328D02*
X190958026Y-185464757D01*
X190958026Y-185464757D02*
X191029455Y-185536185D01*
X191029455Y-185536185D02*
X191100883Y-185679042D01*
X191100883Y-185679042D02*
X191100883Y-186107614D01*
X191100883Y-186107614D02*
X191029455Y-186250471D01*
X191029455Y-186250471D02*
X190958026Y-186321900D01*
X190958026Y-186321900D02*
X190815169Y-186393328D01*
X190815169Y-186393328D02*
X190600883Y-186393328D01*
X191958026Y-186393328D02*
X191815169Y-186321900D01*
X191815169Y-186321900D02*
X191743740Y-186179042D01*
X191743740Y-186179042D02*
X191743740Y-184893328D01*
X192743740Y-186393328D02*
X192600883Y-186321900D01*
X192600883Y-186321900D02*
X192529454Y-186179042D01*
X192529454Y-186179042D02*
X192529454Y-184893328D01*
X193886597Y-186321900D02*
X193743740Y-186393328D01*
X193743740Y-186393328D02*
X193458026Y-186393328D01*
X193458026Y-186393328D02*
X193315168Y-186321900D01*
X193315168Y-186321900D02*
X193243740Y-186179042D01*
X193243740Y-186179042D02*
X193243740Y-185607614D01*
X193243740Y-185607614D02*
X193315168Y-185464757D01*
X193315168Y-185464757D02*
X193458026Y-185393328D01*
X193458026Y-185393328D02*
X193743740Y-185393328D01*
X193743740Y-185393328D02*
X193886597Y-185464757D01*
X193886597Y-185464757D02*
X193958026Y-185607614D01*
X193958026Y-185607614D02*
X193958026Y-185750471D01*
X193958026Y-185750471D02*
X193243740Y-185893328D01*
X194600882Y-186393328D02*
X194600882Y-185393328D01*
X194600882Y-185679042D02*
X194672311Y-185536185D01*
X194672311Y-185536185D02*
X194743740Y-185464757D01*
X194743740Y-185464757D02*
X194886597Y-185393328D01*
X194886597Y-185393328D02*
X195029454Y-185393328D01*
X195529453Y-186250471D02*
X195600882Y-186321900D01*
X195600882Y-186321900D02*
X195529453Y-186393328D01*
X195529453Y-186393328D02*
X195458025Y-186321900D01*
X195458025Y-186321900D02*
X195529453Y-186250471D01*
X195529453Y-186250471D02*
X195529453Y-186393328D01*
X196243739Y-186393328D02*
X196243739Y-184893328D01*
X196386597Y-185821900D02*
X196815168Y-186393328D01*
X196815168Y-185393328D02*
X196243739Y-185964757D01*
X197458025Y-186393328D02*
X197458025Y-185393328D01*
X197458025Y-184893328D02*
X197386597Y-184964757D01*
X197386597Y-184964757D02*
X197458025Y-185036185D01*
X197458025Y-185036185D02*
X197529454Y-184964757D01*
X197529454Y-184964757D02*
X197458025Y-184893328D01*
X197458025Y-184893328D02*
X197458025Y-185036185D01*
X198815169Y-186321900D02*
X198672311Y-186393328D01*
X198672311Y-186393328D02*
X198386597Y-186393328D01*
X198386597Y-186393328D02*
X198243740Y-186321900D01*
X198243740Y-186321900D02*
X198172311Y-186250471D01*
X198172311Y-186250471D02*
X198100883Y-186107614D01*
X198100883Y-186107614D02*
X198100883Y-185679042D01*
X198100883Y-185679042D02*
X198172311Y-185536185D01*
X198172311Y-185536185D02*
X198243740Y-185464757D01*
X198243740Y-185464757D02*
X198386597Y-185393328D01*
X198386597Y-185393328D02*
X198672311Y-185393328D01*
X198672311Y-185393328D02*
X198815169Y-185464757D01*
X200100883Y-186393328D02*
X200100883Y-185607614D01*
X200100883Y-185607614D02*
X200029454Y-185464757D01*
X200029454Y-185464757D02*
X199886597Y-185393328D01*
X199886597Y-185393328D02*
X199600883Y-185393328D01*
X199600883Y-185393328D02*
X199458025Y-185464757D01*
X200100883Y-186321900D02*
X199958025Y-186393328D01*
X199958025Y-186393328D02*
X199600883Y-186393328D01*
X199600883Y-186393328D02*
X199458025Y-186321900D01*
X199458025Y-186321900D02*
X199386597Y-186179042D01*
X199386597Y-186179042D02*
X199386597Y-186036185D01*
X199386597Y-186036185D02*
X199458025Y-185893328D01*
X199458025Y-185893328D02*
X199600883Y-185821900D01*
X199600883Y-185821900D02*
X199958025Y-185821900D01*
X199958025Y-185821900D02*
X200100883Y-185750471D01*
X201458026Y-186393328D02*
X201458026Y-184893328D01*
X201458026Y-186321900D02*
X201315168Y-186393328D01*
X201315168Y-186393328D02*
X201029454Y-186393328D01*
X201029454Y-186393328D02*
X200886597Y-186321900D01*
X200886597Y-186321900D02*
X200815168Y-186250471D01*
X200815168Y-186250471D02*
X200743740Y-186107614D01*
X200743740Y-186107614D02*
X200743740Y-185679042D01*
X200743740Y-185679042D02*
X200815168Y-185536185D01*
X200815168Y-185536185D02*
X200886597Y-185464757D01*
X200886597Y-185464757D02*
X201029454Y-185393328D01*
X201029454Y-185393328D02*
X201315168Y-185393328D01*
X201315168Y-185393328D02*
X201458026Y-185464757D01*
X201815169Y-186536185D02*
X202958026Y-186536185D01*
X203315168Y-185393328D02*
X203315168Y-186893328D01*
X203315168Y-185464757D02*
X203458026Y-185393328D01*
X203458026Y-185393328D02*
X203743740Y-185393328D01*
X203743740Y-185393328D02*
X203886597Y-185464757D01*
X203886597Y-185464757D02*
X203958026Y-185536185D01*
X203958026Y-185536185D02*
X204029454Y-185679042D01*
X204029454Y-185679042D02*
X204029454Y-186107614D01*
X204029454Y-186107614D02*
X203958026Y-186250471D01*
X203958026Y-186250471D02*
X203886597Y-186321900D01*
X203886597Y-186321900D02*
X203743740Y-186393328D01*
X203743740Y-186393328D02*
X203458026Y-186393328D01*
X203458026Y-186393328D02*
X203315168Y-186321900D01*
X205315169Y-186321900D02*
X205172311Y-186393328D01*
X205172311Y-186393328D02*
X204886597Y-186393328D01*
X204886597Y-186393328D02*
X204743740Y-186321900D01*
X204743740Y-186321900D02*
X204672311Y-186250471D01*
X204672311Y-186250471D02*
X204600883Y-186107614D01*
X204600883Y-186107614D02*
X204600883Y-185679042D01*
X204600883Y-185679042D02*
X204672311Y-185536185D01*
X204672311Y-185536185D02*
X204743740Y-185464757D01*
X204743740Y-185464757D02*
X204886597Y-185393328D01*
X204886597Y-185393328D02*
X205172311Y-185393328D01*
X205172311Y-185393328D02*
X205315169Y-185464757D01*
X205958025Y-186393328D02*
X205958025Y-184893328D01*
X205958025Y-185464757D02*
X206100883Y-185393328D01*
X206100883Y-185393328D02*
X206386597Y-185393328D01*
X206386597Y-185393328D02*
X206529454Y-185464757D01*
X206529454Y-185464757D02*
X206600883Y-185536185D01*
X206600883Y-185536185D02*
X206672311Y-185679042D01*
X206672311Y-185679042D02*
X206672311Y-186107614D01*
X206672311Y-186107614D02*
X206600883Y-186250471D01*
X206600883Y-186250471D02*
X206529454Y-186321900D01*
X206529454Y-186321900D02*
X206386597Y-186393328D01*
X206386597Y-186393328D02*
X206100883Y-186393328D01*
X206100883Y-186393328D02*
X205958025Y-186321900D01*
D10*
D11*
X177002200Y-181507200D02*
X285002200Y-181507200D01*
D10*
D11*
X178386598Y-183621900D02*
X178600884Y-183693328D01*
X178600884Y-183693328D02*
X178958026Y-183693328D01*
X178958026Y-183693328D02*
X179100884Y-183621900D01*
X179100884Y-183621900D02*
X179172312Y-183550471D01*
X179172312Y-183550471D02*
X179243741Y-183407614D01*
X179243741Y-183407614D02*
X179243741Y-183264757D01*
X179243741Y-183264757D02*
X179172312Y-183121900D01*
X179172312Y-183121900D02*
X179100884Y-183050471D01*
X179100884Y-183050471D02*
X178958026Y-182979042D01*
X178958026Y-182979042D02*
X178672312Y-182907614D01*
X178672312Y-182907614D02*
X178529455Y-182836185D01*
X178529455Y-182836185D02*
X178458026Y-182764757D01*
X178458026Y-182764757D02*
X178386598Y-182621900D01*
X178386598Y-182621900D02*
X178386598Y-182479042D01*
X178386598Y-182479042D02*
X178458026Y-182336185D01*
X178458026Y-182336185D02*
X178529455Y-182264757D01*
X178529455Y-182264757D02*
X178672312Y-182193328D01*
X178672312Y-182193328D02*
X179029455Y-182193328D01*
X179029455Y-182193328D02*
X179243741Y-182264757D01*
X179886597Y-183693328D02*
X179886597Y-182193328D01*
X180529455Y-183693328D02*
X180529455Y-182907614D01*
X180529455Y-182907614D02*
X180458026Y-182764757D01*
X180458026Y-182764757D02*
X180315169Y-182693328D01*
X180315169Y-182693328D02*
X180100883Y-182693328D01*
X180100883Y-182693328D02*
X179958026Y-182764757D01*
X179958026Y-182764757D02*
X179886597Y-182836185D01*
X181815169Y-183621900D02*
X181672312Y-183693328D01*
X181672312Y-183693328D02*
X181386598Y-183693328D01*
X181386598Y-183693328D02*
X181243740Y-183621900D01*
X181243740Y-183621900D02*
X181172312Y-183479042D01*
X181172312Y-183479042D02*
X181172312Y-182907614D01*
X181172312Y-182907614D02*
X181243740Y-182764757D01*
X181243740Y-182764757D02*
X181386598Y-182693328D01*
X181386598Y-182693328D02*
X181672312Y-182693328D01*
X181672312Y-182693328D02*
X181815169Y-182764757D01*
X181815169Y-182764757D02*
X181886598Y-182907614D01*
X181886598Y-182907614D02*
X181886598Y-183050471D01*
X181886598Y-183050471D02*
X181172312Y-183193328D01*
X183100883Y-183621900D02*
X182958026Y-183693328D01*
X182958026Y-183693328D02*
X182672312Y-183693328D01*
X182672312Y-183693328D02*
X182529454Y-183621900D01*
X182529454Y-183621900D02*
X182458026Y-183479042D01*
X182458026Y-183479042D02*
X182458026Y-182907614D01*
X182458026Y-182907614D02*
X182529454Y-182764757D01*
X182529454Y-182764757D02*
X182672312Y-182693328D01*
X182672312Y-182693328D02*
X182958026Y-182693328D01*
X182958026Y-182693328D02*
X183100883Y-182764757D01*
X183100883Y-182764757D02*
X183172312Y-182907614D01*
X183172312Y-182907614D02*
X183172312Y-183050471D01*
X183172312Y-183050471D02*
X182458026Y-183193328D01*
X183600883Y-182693328D02*
X184172311Y-182693328D01*
X183815168Y-182193328D02*
X183815168Y-183479042D01*
X183815168Y-183479042D02*
X183886597Y-183621900D01*
X183886597Y-183621900D02*
X184029454Y-183693328D01*
X184029454Y-183693328D02*
X184172311Y-183693328D01*
X184672311Y-183550471D02*
X184743740Y-183621900D01*
X184743740Y-183621900D02*
X184672311Y-183693328D01*
X184672311Y-183693328D02*
X184600883Y-183621900D01*
X184600883Y-183621900D02*
X184672311Y-183550471D01*
X184672311Y-183550471D02*
X184672311Y-183693328D01*
X184672311Y-182764757D02*
X184743740Y-182836185D01*
X184743740Y-182836185D02*
X184672311Y-182907614D01*
X184672311Y-182907614D02*
X184600883Y-182836185D01*
X184600883Y-182836185D02*
X184672311Y-182764757D01*
X184672311Y-182764757D02*
X184672311Y-182907614D01*
D10*
D12*
D10*
D11*
D10*
D11*
D10*
D11*
D10*
D11*
D10*
D11*
X197002200Y-191507200D02*
X197002200Y-194507200D01*
D10*
D11*
X261002200Y-191507200D02*
X261002200Y-198007200D01*
D12*
X149239653Y-102906971D02*
X149168225Y-102978400D01*
X149168225Y-102978400D02*
X148953939Y-103049828D01*
X148953939Y-103049828D02*
X148811082Y-103049828D01*
X148811082Y-103049828D02*
X148596796Y-102978400D01*
X148596796Y-102978400D02*
X148453939Y-102835542D01*
X148453939Y-102835542D02*
X148382510Y-102692685D01*
X148382510Y-102692685D02*
X148311082Y-102406971D01*
X148311082Y-102406971D02*
X148311082Y-102192685D01*
X148311082Y-102192685D02*
X148382510Y-101906971D01*
X148382510Y-101906971D02*
X148453939Y-101764114D01*
X148453939Y-101764114D02*
X148596796Y-101621257D01*
X148596796Y-101621257D02*
X148811082Y-101549828D01*
X148811082Y-101549828D02*
X148953939Y-101549828D01*
X148953939Y-101549828D02*
X149168225Y-101621257D01*
X149168225Y-101621257D02*
X149239653Y-101692685D01*
X150096796Y-103049828D02*
X149953939Y-102978400D01*
X149953939Y-102978400D02*
X149882510Y-102906971D01*
X149882510Y-102906971D02*
X149811082Y-102764114D01*
X149811082Y-102764114D02*
X149811082Y-102335542D01*
X149811082Y-102335542D02*
X149882510Y-102192685D01*
X149882510Y-102192685D02*
X149953939Y-102121257D01*
X149953939Y-102121257D02*
X150096796Y-102049828D01*
X150096796Y-102049828D02*
X150311082Y-102049828D01*
X150311082Y-102049828D02*
X150453939Y-102121257D01*
X150453939Y-102121257D02*
X150525368Y-102192685D01*
X150525368Y-102192685D02*
X150596796Y-102335542D01*
X150596796Y-102335542D02*
X150596796Y-102764114D01*
X150596796Y-102764114D02*
X150525368Y-102906971D01*
X150525368Y-102906971D02*
X150453939Y-102978400D01*
X150453939Y-102978400D02*
X150311082Y-103049828D01*
X150311082Y-103049828D02*
X150096796Y-103049828D01*
X151239653Y-102049828D02*
X151239653Y-103049828D01*
X151239653Y-102192685D02*
X151311082Y-102121257D01*
X151311082Y-102121257D02*
X151453939Y-102049828D01*
X151453939Y-102049828D02*
X151668225Y-102049828D01*
X151668225Y-102049828D02*
X151811082Y-102121257D01*
X151811082Y-102121257D02*
X151882511Y-102264114D01*
X151882511Y-102264114D02*
X151882511Y-103049828D01*
X152382511Y-102049828D02*
X152953939Y-102049828D01*
X152596796Y-101549828D02*
X152596796Y-102835542D01*
X152596796Y-102835542D02*
X152668225Y-102978400D01*
X152668225Y-102978400D02*
X152811082Y-103049828D01*
X152811082Y-103049828D02*
X152953939Y-103049828D01*
X153453939Y-103049828D02*
X153453939Y-102049828D01*
X153453939Y-102335542D02*
X153525368Y-102192685D01*
X153525368Y-102192685D02*
X153596797Y-102121257D01*
X153596797Y-102121257D02*
X153739654Y-102049828D01*
X153739654Y-102049828D02*
X153882511Y-102049828D01*
X154596796Y-103049828D02*
X154453939Y-102978400D01*
X154453939Y-102978400D02*
X154382510Y-102906971D01*
X154382510Y-102906971D02*
X154311082Y-102764114D01*
X154311082Y-102764114D02*
X154311082Y-102335542D01*
X154311082Y-102335542D02*
X154382510Y-102192685D01*
X154382510Y-102192685D02*
X154453939Y-102121257D01*
X154453939Y-102121257D02*
X154596796Y-102049828D01*
X154596796Y-102049828D02*
X154811082Y-102049828D01*
X154811082Y-102049828D02*
X154953939Y-102121257D01*
X154953939Y-102121257D02*
X155025368Y-102192685D01*
X155025368Y-102192685D02*
X155096796Y-102335542D01*
X155096796Y-102335542D02*
X155096796Y-102764114D01*
X155096796Y-102764114D02*
X155025368Y-102906971D01*
X155025368Y-102906971D02*
X154953939Y-102978400D01*
X154953939Y-102978400D02*
X154811082Y-103049828D01*
X154811082Y-103049828D02*
X154596796Y-103049828D01*
X155953939Y-103049828D02*
X155811082Y-102978400D01*
X155811082Y-102978400D02*
X155739653Y-102835542D01*
X155739653Y-102835542D02*
X155739653Y-101549828D01*
X156739653Y-103049828D02*
X156596796Y-102978400D01*
X156596796Y-102978400D02*
X156525367Y-102835542D01*
X156525367Y-102835542D02*
X156525367Y-101549828D01*
X157882510Y-102978400D02*
X157739653Y-103049828D01*
X157739653Y-103049828D02*
X157453939Y-103049828D01*
X157453939Y-103049828D02*
X157311081Y-102978400D01*
X157311081Y-102978400D02*
X157239653Y-102835542D01*
X157239653Y-102835542D02*
X157239653Y-102264114D01*
X157239653Y-102264114D02*
X157311081Y-102121257D01*
X157311081Y-102121257D02*
X157453939Y-102049828D01*
X157453939Y-102049828D02*
X157739653Y-102049828D01*
X157739653Y-102049828D02*
X157882510Y-102121257D01*
X157882510Y-102121257D02*
X157953939Y-102264114D01*
X157953939Y-102264114D02*
X157953939Y-102406971D01*
X157953939Y-102406971D02*
X157239653Y-102549828D01*
X158596795Y-103049828D02*
X158596795Y-102049828D01*
X158596795Y-102335542D02*
X158668224Y-102192685D01*
X158668224Y-102192685D02*
X158739653Y-102121257D01*
X158739653Y-102121257D02*
X158882510Y-102049828D01*
X158882510Y-102049828D02*
X159025367Y-102049828D01*
X160453938Y-101549828D02*
X160953938Y-103049828D01*
X160953938Y-103049828D02*
X161453938Y-101549828D01*
X162239652Y-101549828D02*
X162382509Y-101549828D01*
X162382509Y-101549828D02*
X162525366Y-101621257D01*
X162525366Y-101621257D02*
X162596795Y-101692685D01*
X162596795Y-101692685D02*
X162668223Y-101835542D01*
X162668223Y-101835542D02*
X162739652Y-102121257D01*
X162739652Y-102121257D02*
X162739652Y-102478400D01*
X162739652Y-102478400D02*
X162668223Y-102764114D01*
X162668223Y-102764114D02*
X162596795Y-102906971D01*
X162596795Y-102906971D02*
X162525366Y-102978400D01*
X162525366Y-102978400D02*
X162382509Y-103049828D01*
X162382509Y-103049828D02*
X162239652Y-103049828D01*
X162239652Y-103049828D02*
X162096795Y-102978400D01*
X162096795Y-102978400D02*
X162025366Y-102906971D01*
X162025366Y-102906971D02*
X161953937Y-102764114D01*
X161953937Y-102764114D02*
X161882509Y-102478400D01*
X161882509Y-102478400D02*
X161882509Y-102121257D01*
X161882509Y-102121257D02*
X161953937Y-101835542D01*
X161953937Y-101835542D02*
X162025366Y-101692685D01*
X162025366Y-101692685D02*
X162096795Y-101621257D01*
X162096795Y-101621257D02*
X162239652Y-101549828D01*
X163311080Y-101692685D02*
X163382508Y-101621257D01*
X163382508Y-101621257D02*
X163525366Y-101549828D01*
X163525366Y-101549828D02*
X163882508Y-101549828D01*
X163882508Y-101549828D02*
X164025366Y-101621257D01*
X164025366Y-101621257D02*
X164096794Y-101692685D01*
X164096794Y-101692685D02*
X164168223Y-101835542D01*
X164168223Y-101835542D02*
X164168223Y-101978400D01*
X164168223Y-101978400D02*
X164096794Y-102192685D01*
X164096794Y-102192685D02*
X163239651Y-103049828D01*
X163239651Y-103049828D02*
X164168223Y-103049828D01*
X148239653Y-104464828D02*
X148525368Y-105464828D01*
X148525368Y-105464828D02*
X148811082Y-104750542D01*
X148811082Y-104750542D02*
X149096796Y-105464828D01*
X149096796Y-105464828D02*
X149382510Y-104464828D01*
X149953939Y-105464828D02*
X149953939Y-104464828D01*
X149953939Y-103964828D02*
X149882511Y-104036257D01*
X149882511Y-104036257D02*
X149953939Y-104107685D01*
X149953939Y-104107685D02*
X150025368Y-104036257D01*
X150025368Y-104036257D02*
X149953939Y-103964828D01*
X149953939Y-103964828D02*
X149953939Y-104107685D01*
X150453940Y-104464828D02*
X151025368Y-104464828D01*
X150668225Y-103964828D02*
X150668225Y-105250542D01*
X150668225Y-105250542D02*
X150739654Y-105393400D01*
X150739654Y-105393400D02*
X150882511Y-105464828D01*
X150882511Y-105464828D02*
X151025368Y-105464828D01*
X151525368Y-105464828D02*
X151525368Y-103964828D01*
X152168226Y-105464828D02*
X152168226Y-104679114D01*
X152168226Y-104679114D02*
X152096797Y-104536257D01*
X152096797Y-104536257D02*
X151953940Y-104464828D01*
X151953940Y-104464828D02*
X151739654Y-104464828D01*
X151739654Y-104464828D02*
X151596797Y-104536257D01*
X151596797Y-104536257D02*
X151525368Y-104607685D01*
X154025368Y-104679114D02*
X154525368Y-104679114D01*
X154739654Y-105464828D02*
X154025368Y-105464828D01*
X154025368Y-105464828D02*
X154025368Y-103964828D01*
X154025368Y-103964828D02*
X154739654Y-103964828D01*
X155311083Y-105393400D02*
X155525369Y-105464828D01*
X155525369Y-105464828D02*
X155882511Y-105464828D01*
X155882511Y-105464828D02*
X156025369Y-105393400D01*
X156025369Y-105393400D02*
X156096797Y-105321971D01*
X156096797Y-105321971D02*
X156168226Y-105179114D01*
X156168226Y-105179114D02*
X156168226Y-105036257D01*
X156168226Y-105036257D02*
X156096797Y-104893400D01*
X156096797Y-104893400D02*
X156025369Y-104821971D01*
X156025369Y-104821971D02*
X155882511Y-104750542D01*
X155882511Y-104750542D02*
X155596797Y-104679114D01*
X155596797Y-104679114D02*
X155453940Y-104607685D01*
X155453940Y-104607685D02*
X155382511Y-104536257D01*
X155382511Y-104536257D02*
X155311083Y-104393400D01*
X155311083Y-104393400D02*
X155311083Y-104250542D01*
X155311083Y-104250542D02*
X155382511Y-104107685D01*
X155382511Y-104107685D02*
X155453940Y-104036257D01*
X155453940Y-104036257D02*
X155596797Y-103964828D01*
X155596797Y-103964828D02*
X155953940Y-103964828D01*
X155953940Y-103964828D02*
X156168226Y-104036257D01*
X156811082Y-105464828D02*
X156811082Y-103964828D01*
X156811082Y-103964828D02*
X157382511Y-103964828D01*
X157382511Y-103964828D02*
X157525368Y-104036257D01*
X157525368Y-104036257D02*
X157596797Y-104107685D01*
X157596797Y-104107685D02*
X157668225Y-104250542D01*
X157668225Y-104250542D02*
X157668225Y-104464828D01*
X157668225Y-104464828D02*
X157596797Y-104607685D01*
X157596797Y-104607685D02*
X157525368Y-104679114D01*
X157525368Y-104679114D02*
X157382511Y-104750542D01*
X157382511Y-104750542D02*
X156811082Y-104750542D01*
X158168225Y-103964828D02*
X159096797Y-103964828D01*
X159096797Y-103964828D02*
X158596797Y-104536257D01*
X158596797Y-104536257D02*
X158811082Y-104536257D01*
X158811082Y-104536257D02*
X158953940Y-104607685D01*
X158953940Y-104607685D02*
X159025368Y-104679114D01*
X159025368Y-104679114D02*
X159096797Y-104821971D01*
X159096797Y-104821971D02*
X159096797Y-105179114D01*
X159096797Y-105179114D02*
X159025368Y-105321971D01*
X159025368Y-105321971D02*
X158953940Y-105393400D01*
X158953940Y-105393400D02*
X158811082Y-105464828D01*
X158811082Y-105464828D02*
X158382511Y-105464828D01*
X158382511Y-105464828D02*
X158239654Y-105393400D01*
X158239654Y-105393400D02*
X158168225Y-105321971D01*
X159668225Y-104107685D02*
X159739653Y-104036257D01*
X159739653Y-104036257D02*
X159882511Y-103964828D01*
X159882511Y-103964828D02*
X160239653Y-103964828D01*
X160239653Y-103964828D02*
X160382511Y-104036257D01*
X160382511Y-104036257D02*
X160453939Y-104107685D01*
X160453939Y-104107685D02*
X160525368Y-104250542D01*
X160525368Y-104250542D02*
X160525368Y-104393400D01*
X160525368Y-104393400D02*
X160453939Y-104607685D01*
X160453939Y-104607685D02*
X159596796Y-105464828D01*
X159596796Y-105464828D02*
X160525368Y-105464828D01*
X162311081Y-105464828D02*
X162311081Y-103964828D01*
X162311081Y-103964828D02*
X162668224Y-103964828D01*
X162668224Y-103964828D02*
X162882510Y-104036257D01*
X162882510Y-104036257D02*
X163025367Y-104179114D01*
X163025367Y-104179114D02*
X163096796Y-104321971D01*
X163096796Y-104321971D02*
X163168224Y-104607685D01*
X163168224Y-104607685D02*
X163168224Y-104821971D01*
X163168224Y-104821971D02*
X163096796Y-105107685D01*
X163096796Y-105107685D02*
X163025367Y-105250542D01*
X163025367Y-105250542D02*
X162882510Y-105393400D01*
X162882510Y-105393400D02*
X162668224Y-105464828D01*
X162668224Y-105464828D02*
X162311081Y-105464828D01*
X163811081Y-104679114D02*
X164311081Y-104679114D01*
X164525367Y-105464828D02*
X163811081Y-105464828D01*
X163811081Y-105464828D02*
X163811081Y-103964828D01*
X163811081Y-103964828D02*
X164525367Y-103964828D01*
X164953939Y-103964828D02*
X165453939Y-105464828D01*
X165453939Y-105464828D02*
X165953939Y-103964828D01*
X166239653Y-103964828D02*
X166739653Y-105464828D01*
X166739653Y-105464828D02*
X167239653Y-103964828D01*
X167739652Y-105464828D02*
X167739652Y-103964828D01*
X168596795Y-105464828D02*
X167953938Y-104607685D01*
X168596795Y-103964828D02*
X167739652Y-104821971D01*
X169239652Y-105464828D02*
X169239652Y-103964828D01*
X169739653Y-103964828D02*
X170596796Y-103964828D01*
X170168224Y-105464828D02*
X170168224Y-103964828D01*
X171953938Y-105321971D02*
X171882510Y-105393400D01*
X171882510Y-105393400D02*
X171668224Y-105464828D01*
X171668224Y-105464828D02*
X171525367Y-105464828D01*
X171525367Y-105464828D02*
X171311081Y-105393400D01*
X171311081Y-105393400D02*
X171168224Y-105250542D01*
X171168224Y-105250542D02*
X171096795Y-105107685D01*
X171096795Y-105107685D02*
X171025367Y-104821971D01*
X171025367Y-104821971D02*
X171025367Y-104607685D01*
X171025367Y-104607685D02*
X171096795Y-104321971D01*
X171096795Y-104321971D02*
X171168224Y-104179114D01*
X171168224Y-104179114D02*
X171311081Y-104036257D01*
X171311081Y-104036257D02*
X171525367Y-103964828D01*
X171525367Y-103964828D02*
X171668224Y-103964828D01*
X171668224Y-103964828D02*
X171882510Y-104036257D01*
X171882510Y-104036257D02*
X171953938Y-104107685D01*
X173525367Y-103964828D02*
X174025367Y-105464828D01*
X174025367Y-105464828D02*
X174525367Y-103964828D01*
X175668224Y-104464828D02*
X175668224Y-105464828D01*
X175311081Y-103893400D02*
X174953938Y-104964828D01*
X174953938Y-104964828D02*
X175882509Y-104964828D01*
D11*
X93761160Y-60544104D02*
X94237350Y-60544104D01*
X93665922Y-60829819D02*
X93999255Y-59829819D01*
X93999255Y-59829819D02*
X94332588Y-60829819D01*
X95094493Y-60163152D02*
X95094493Y-60829819D01*
X94665922Y-60163152D02*
X94665922Y-60686961D01*
X94665922Y-60686961D02*
X94713541Y-60782200D01*
X94713541Y-60782200D02*
X94808779Y-60829819D01*
X94808779Y-60829819D02*
X94951636Y-60829819D01*
X94951636Y-60829819D02*
X95046874Y-60782200D01*
X95046874Y-60782200D02*
X95094493Y-60734580D01*
X95427827Y-60163152D02*
X95808779Y-60163152D01*
X95570684Y-59829819D02*
X95570684Y-60686961D01*
X95570684Y-60686961D02*
X95618303Y-60782200D01*
X95618303Y-60782200D02*
X95713541Y-60829819D01*
X95713541Y-60829819D02*
X95808779Y-60829819D01*
X96142113Y-60829819D02*
X96142113Y-59829819D01*
X96570684Y-60829819D02*
X96570684Y-60306009D01*
X96570684Y-60306009D02*
X96523065Y-60210771D01*
X96523065Y-60210771D02*
X96427827Y-60163152D01*
X96427827Y-60163152D02*
X96284970Y-60163152D01*
X96284970Y-60163152D02*
X96189732Y-60210771D01*
X96189732Y-60210771D02*
X96142113Y-60258390D01*
X97189732Y-60829819D02*
X97094494Y-60782200D01*
X97094494Y-60782200D02*
X97046875Y-60734580D01*
X97046875Y-60734580D02*
X96999256Y-60639342D01*
X96999256Y-60639342D02*
X96999256Y-60353628D01*
X96999256Y-60353628D02*
X97046875Y-60258390D01*
X97046875Y-60258390D02*
X97094494Y-60210771D01*
X97094494Y-60210771D02*
X97189732Y-60163152D01*
X97189732Y-60163152D02*
X97332589Y-60163152D01*
X97332589Y-60163152D02*
X97427827Y-60210771D01*
X97427827Y-60210771D02*
X97475446Y-60258390D01*
X97475446Y-60258390D02*
X97523065Y-60353628D01*
X97523065Y-60353628D02*
X97523065Y-60639342D01*
X97523065Y-60639342D02*
X97475446Y-60734580D01*
X97475446Y-60734580D02*
X97427827Y-60782200D01*
X97427827Y-60782200D02*
X97332589Y-60829819D01*
X97332589Y-60829819D02*
X97189732Y-60829819D01*
X97951637Y-60829819D02*
X97951637Y-60163152D01*
X97951637Y-60353628D02*
X97999256Y-60258390D01*
X97999256Y-60258390D02*
X98046875Y-60210771D01*
X98046875Y-60210771D02*
X98142113Y-60163152D01*
X98142113Y-60163152D02*
X98237351Y-60163152D01*
X98570685Y-60734580D02*
X98618304Y-60782200D01*
X98618304Y-60782200D02*
X98570685Y-60829819D01*
X98570685Y-60829819D02*
X98523066Y-60782200D01*
X98523066Y-60782200D02*
X98570685Y-60734580D01*
X98570685Y-60734580D02*
X98570685Y-60829819D01*
X98570685Y-60210771D02*
X98618304Y-60258390D01*
X98618304Y-60258390D02*
X98570685Y-60306009D01*
X98570685Y-60306009D02*
X98523066Y-60258390D01*
X98523066Y-60258390D02*
X98570685Y-60210771D01*
X98570685Y-60210771D02*
X98570685Y-60306009D01*
X99761161Y-60544104D02*
X100237351Y-60544104D01*
X99665923Y-60829819D02*
X99999256Y-59829819D01*
X99999256Y-59829819D02*
X100332589Y-60829819D01*
X100665923Y-60829819D02*
X100665923Y-60163152D01*
X100665923Y-60353628D02*
X100713542Y-60258390D01*
X100713542Y-60258390D02*
X100761161Y-60210771D01*
X100761161Y-60210771D02*
X100856399Y-60163152D01*
X100856399Y-60163152D02*
X100951637Y-60163152D01*
X101189733Y-60163152D02*
X101427828Y-60829819D01*
X101665923Y-60163152D02*
X101427828Y-60829819D01*
X101427828Y-60829819D02*
X101332590Y-61067914D01*
X101332590Y-61067914D02*
X101284971Y-61115533D01*
X101284971Y-61115533D02*
X101189733Y-61163152D01*
X102475447Y-60829819D02*
X102475447Y-60306009D01*
X102475447Y-60306009D02*
X102427828Y-60210771D01*
X102427828Y-60210771D02*
X102332590Y-60163152D01*
X102332590Y-60163152D02*
X102142114Y-60163152D01*
X102142114Y-60163152D02*
X102046876Y-60210771D01*
X102475447Y-60782200D02*
X102380209Y-60829819D01*
X102380209Y-60829819D02*
X102142114Y-60829819D01*
X102142114Y-60829819D02*
X102046876Y-60782200D01*
X102046876Y-60782200D02*
X101999257Y-60686961D01*
X101999257Y-60686961D02*
X101999257Y-60591723D01*
X101999257Y-60591723D02*
X102046876Y-60496485D01*
X102046876Y-60496485D02*
X102142114Y-60448866D01*
X102142114Y-60448866D02*
X102380209Y-60448866D01*
X102380209Y-60448866D02*
X102475447Y-60401247D01*
X102951638Y-60163152D02*
X102951638Y-60829819D01*
X102951638Y-60258390D02*
X102999257Y-60210771D01*
X102999257Y-60210771D02*
X103094495Y-60163152D01*
X103094495Y-60163152D02*
X103237352Y-60163152D01*
X103237352Y-60163152D02*
X103332590Y-60210771D01*
X103332590Y-60210771D02*
X103380209Y-60306009D01*
X103380209Y-60306009D02*
X103380209Y-60829819D01*
X104951638Y-60306009D02*
X105094495Y-60353628D01*
X105094495Y-60353628D02*
X105142114Y-60401247D01*
X105142114Y-60401247D02*
X105189733Y-60496485D01*
X105189733Y-60496485D02*
X105189733Y-60639342D01*
X105189733Y-60639342D02*
X105142114Y-60734580D01*
X105142114Y-60734580D02*
X105094495Y-60782200D01*
X105094495Y-60782200D02*
X104999257Y-60829819D01*
X104999257Y-60829819D02*
X104618305Y-60829819D01*
X104618305Y-60829819D02*
X104618305Y-59829819D01*
X104618305Y-59829819D02*
X104951638Y-59829819D01*
X104951638Y-59829819D02*
X105046876Y-59877438D01*
X105046876Y-59877438D02*
X105094495Y-59925057D01*
X105094495Y-59925057D02*
X105142114Y-60020295D01*
X105142114Y-60020295D02*
X105142114Y-60115533D01*
X105142114Y-60115533D02*
X105094495Y-60210771D01*
X105094495Y-60210771D02*
X105046876Y-60258390D01*
X105046876Y-60258390D02*
X104951638Y-60306009D01*
X104951638Y-60306009D02*
X104618305Y-60306009D01*
X106046876Y-60829819D02*
X106046876Y-60306009D01*
X106046876Y-60306009D02*
X105999257Y-60210771D01*
X105999257Y-60210771D02*
X105904019Y-60163152D01*
X105904019Y-60163152D02*
X105713543Y-60163152D01*
X105713543Y-60163152D02*
X105618305Y-60210771D01*
X106046876Y-60782200D02*
X105951638Y-60829819D01*
X105951638Y-60829819D02*
X105713543Y-60829819D01*
X105713543Y-60829819D02*
X105618305Y-60782200D01*
X105618305Y-60782200D02*
X105570686Y-60686961D01*
X105570686Y-60686961D02*
X105570686Y-60591723D01*
X105570686Y-60591723D02*
X105618305Y-60496485D01*
X105618305Y-60496485D02*
X105713543Y-60448866D01*
X105713543Y-60448866D02*
X105951638Y-60448866D01*
X105951638Y-60448866D02*
X106046876Y-60401247D01*
X106427829Y-60163152D02*
X106618305Y-60829819D01*
X106618305Y-60829819D02*
X106808781Y-60353628D01*
X106808781Y-60353628D02*
X106999257Y-60829819D01*
X106999257Y-60829819D02*
X107189733Y-60163152D01*
X107999257Y-60829819D02*
X107999257Y-60306009D01*
X107999257Y-60306009D02*
X107951638Y-60210771D01*
X107951638Y-60210771D02*
X107856400Y-60163152D01*
X107856400Y-60163152D02*
X107665924Y-60163152D01*
X107665924Y-60163152D02*
X107570686Y-60210771D01*
X107999257Y-60782200D02*
X107904019Y-60829819D01*
X107904019Y-60829819D02*
X107665924Y-60829819D01*
X107665924Y-60829819D02*
X107570686Y-60782200D01*
X107570686Y-60782200D02*
X107523067Y-60686961D01*
X107523067Y-60686961D02*
X107523067Y-60591723D01*
X107523067Y-60591723D02*
X107570686Y-60496485D01*
X107570686Y-60496485D02*
X107665924Y-60448866D01*
X107665924Y-60448866D02*
X107904019Y-60448866D01*
X107904019Y-60448866D02*
X107999257Y-60401247D01*
X108475448Y-60163152D02*
X108475448Y-60829819D01*
X108475448Y-60258390D02*
X108523067Y-60210771D01*
X108523067Y-60210771D02*
X108618305Y-60163152D01*
X108618305Y-60163152D02*
X108761162Y-60163152D01*
X108761162Y-60163152D02*
X108856400Y-60210771D01*
X108856400Y-60210771D02*
X108904019Y-60306009D01*
X108904019Y-60306009D02*
X108904019Y-60829819D01*
X109380210Y-60829819D02*
X109380210Y-59829819D01*
X109475448Y-60448866D02*
X109761162Y-60829819D01*
X109761162Y-60163152D02*
X109380210Y-60544104D01*
X110618305Y-60829819D02*
X110618305Y-60306009D01*
X110618305Y-60306009D02*
X110570686Y-60210771D01*
X110570686Y-60210771D02*
X110475448Y-60163152D01*
X110475448Y-60163152D02*
X110284972Y-60163152D01*
X110284972Y-60163152D02*
X110189734Y-60210771D01*
X110618305Y-60782200D02*
X110523067Y-60829819D01*
X110523067Y-60829819D02*
X110284972Y-60829819D01*
X110284972Y-60829819D02*
X110189734Y-60782200D01*
X110189734Y-60782200D02*
X110142115Y-60686961D01*
X110142115Y-60686961D02*
X110142115Y-60591723D01*
X110142115Y-60591723D02*
X110189734Y-60496485D01*
X110189734Y-60496485D02*
X110284972Y-60448866D01*
X110284972Y-60448866D02*
X110523067Y-60448866D01*
X110523067Y-60448866D02*
X110618305Y-60401247D01*
X111094496Y-60829819D02*
X111094496Y-60163152D01*
X111094496Y-60353628D02*
X111142115Y-60258390D01*
X111142115Y-60258390D02*
X111189734Y-60210771D01*
X111189734Y-60210771D02*
X111284972Y-60163152D01*
X111284972Y-60163152D02*
X111380210Y-60163152D01*
%TO.C,U2*%
X161290095Y-55334819D02*
X161290095Y-56144342D01*
X161290095Y-56144342D02*
X161337714Y-56239580D01*
X161337714Y-56239580D02*
X161385333Y-56287200D01*
X161385333Y-56287200D02*
X161480571Y-56334819D01*
X161480571Y-56334819D02*
X161671047Y-56334819D01*
X161671047Y-56334819D02*
X161766285Y-56287200D01*
X161766285Y-56287200D02*
X161813904Y-56239580D01*
X161813904Y-56239580D02*
X161861523Y-56144342D01*
X161861523Y-56144342D02*
X161861523Y-55334819D01*
X162290095Y-55430057D02*
X162337714Y-55382438D01*
X162337714Y-55382438D02*
X162432952Y-55334819D01*
X162432952Y-55334819D02*
X162671047Y-55334819D01*
X162671047Y-55334819D02*
X162766285Y-55382438D01*
X162766285Y-55382438D02*
X162813904Y-55430057D01*
X162813904Y-55430057D02*
X162861523Y-55525295D01*
X162861523Y-55525295D02*
X162861523Y-55620533D01*
X162861523Y-55620533D02*
X162813904Y-55763390D01*
X162813904Y-55763390D02*
X162242476Y-56334819D01*
X162242476Y-56334819D02*
X162861523Y-56334819D01*
%TO.C,H4*%
X180086095Y-101902819D02*
X180086095Y-100902819D01*
X180086095Y-101379009D02*
X180657523Y-101379009D01*
X180657523Y-101902819D02*
X180657523Y-100902819D01*
X181562285Y-101236152D02*
X181562285Y-101902819D01*
X181324190Y-100855200D02*
X181086095Y-101569485D01*
X181086095Y-101569485D02*
X181705142Y-101569485D01*
%TO.C,S4*%
X153935400Y-90446904D02*
X153983019Y-90304047D01*
X153983019Y-90304047D02*
X153983019Y-90065952D01*
X153983019Y-90065952D02*
X153935400Y-89970714D01*
X153935400Y-89970714D02*
X153887780Y-89923095D01*
X153887780Y-89923095D02*
X153792542Y-89875476D01*
X153792542Y-89875476D02*
X153697304Y-89875476D01*
X153697304Y-89875476D02*
X153602066Y-89923095D01*
X153602066Y-89923095D02*
X153554447Y-89970714D01*
X153554447Y-89970714D02*
X153506828Y-90065952D01*
X153506828Y-90065952D02*
X153459209Y-90256428D01*
X153459209Y-90256428D02*
X153411590Y-90351666D01*
X153411590Y-90351666D02*
X153363971Y-90399285D01*
X153363971Y-90399285D02*
X153268733Y-90446904D01*
X153268733Y-90446904D02*
X153173495Y-90446904D01*
X153173495Y-90446904D02*
X153078257Y-90399285D01*
X153078257Y-90399285D02*
X153030638Y-90351666D01*
X153030638Y-90351666D02*
X152983019Y-90256428D01*
X152983019Y-90256428D02*
X152983019Y-90018333D01*
X152983019Y-90018333D02*
X153030638Y-89875476D01*
X153316352Y-89018333D02*
X153983019Y-89018333D01*
X152935400Y-89256428D02*
X153649685Y-89494523D01*
X153649685Y-89494523D02*
X153649685Y-88875476D01*
%TO.C,U1*%
X89878612Y-76962198D02*
X90688448Y-76962198D01*
X90688448Y-76962198D02*
X90783723Y-76914561D01*
X90783723Y-76914561D02*
X90831361Y-76866924D01*
X90831361Y-76866924D02*
X90878998Y-76771649D01*
X90878998Y-76771649D02*
X90878998Y-76581099D01*
X90878998Y-76581099D02*
X90831361Y-76485824D01*
X90831361Y-76485824D02*
X90783723Y-76438187D01*
X90783723Y-76438187D02*
X90688448Y-76390549D01*
X90688448Y-76390549D02*
X89878612Y-76390549D01*
X90878998Y-75390164D02*
X90878998Y-75961813D01*
X90878998Y-75675988D02*
X89878612Y-75675988D01*
X89878612Y-75675988D02*
X90021524Y-75771263D01*
X90021524Y-75771263D02*
X90116799Y-75866538D01*
X90116799Y-75866538D02*
X90164437Y-75961813D01*
%TO.C,U4*%
X175514095Y-60414819D02*
X175514095Y-61224342D01*
X175514095Y-61224342D02*
X175561714Y-61319580D01*
X175561714Y-61319580D02*
X175609333Y-61367200D01*
X175609333Y-61367200D02*
X175704571Y-61414819D01*
X175704571Y-61414819D02*
X175895047Y-61414819D01*
X175895047Y-61414819D02*
X175990285Y-61367200D01*
X175990285Y-61367200D02*
X176037904Y-61319580D01*
X176037904Y-61319580D02*
X176085523Y-61224342D01*
X176085523Y-61224342D02*
X176085523Y-60414819D01*
X176990285Y-60748152D02*
X176990285Y-61414819D01*
X176752190Y-60367200D02*
X176514095Y-61081485D01*
X176514095Y-61081485D02*
X177133142Y-61081485D01*
%TO.C,U3*%
X108966095Y-101562819D02*
X108966095Y-102372342D01*
X108966095Y-102372342D02*
X109013714Y-102467580D01*
X109013714Y-102467580D02*
X109061333Y-102515200D01*
X109061333Y-102515200D02*
X109156571Y-102562819D01*
X109156571Y-102562819D02*
X109347047Y-102562819D01*
X109347047Y-102562819D02*
X109442285Y-102515200D01*
X109442285Y-102515200D02*
X109489904Y-102467580D01*
X109489904Y-102467580D02*
X109537523Y-102372342D01*
X109537523Y-102372342D02*
X109537523Y-101562819D01*
X109918476Y-101562819D02*
X110537523Y-101562819D01*
X110537523Y-101562819D02*
X110204190Y-101943771D01*
X110204190Y-101943771D02*
X110347047Y-101943771D01*
X110347047Y-101943771D02*
X110442285Y-101991390D01*
X110442285Y-101991390D02*
X110489904Y-102039009D01*
X110489904Y-102039009D02*
X110537523Y-102134247D01*
X110537523Y-102134247D02*
X110537523Y-102372342D01*
X110537523Y-102372342D02*
X110489904Y-102467580D01*
X110489904Y-102467580D02*
X110442285Y-102515200D01*
X110442285Y-102515200D02*
X110347047Y-102562819D01*
X110347047Y-102562819D02*
X110061333Y-102562819D01*
X110061333Y-102562819D02*
X109966095Y-102515200D01*
X109966095Y-102515200D02*
X109918476Y-102467580D01*
%TO.C,R1*%
X91781333Y-98498819D02*
X91448000Y-98022628D01*
X91209905Y-98498819D02*
X91209905Y-97498819D01*
X91209905Y-97498819D02*
X91590857Y-97498819D01*
X91590857Y-97498819D02*
X91686095Y-97546438D01*
X91686095Y-97546438D02*
X91733714Y-97594057D01*
X91733714Y-97594057D02*
X91781333Y-97689295D01*
X91781333Y-97689295D02*
X91781333Y-97832152D01*
X91781333Y-97832152D02*
X91733714Y-97927390D01*
X91733714Y-97927390D02*
X91686095Y-97975009D01*
X91686095Y-97975009D02*
X91590857Y-98022628D01*
X91590857Y-98022628D02*
X91209905Y-98022628D01*
X92733714Y-98498819D02*
X92162286Y-98498819D01*
X92448000Y-98498819D02*
X92448000Y-97498819D01*
X92448000Y-97498819D02*
X92352762Y-97641676D01*
X92352762Y-97641676D02*
X92257524Y-97736914D01*
X92257524Y-97736914D02*
X92162286Y-97784533D01*
%TO.C,R5*%
X157948333Y-99529819D02*
X157615000Y-99053628D01*
X157376905Y-99529819D02*
X157376905Y-98529819D01*
X157376905Y-98529819D02*
X157757857Y-98529819D01*
X157757857Y-98529819D02*
X157853095Y-98577438D01*
X157853095Y-98577438D02*
X157900714Y-98625057D01*
X157900714Y-98625057D02*
X157948333Y-98720295D01*
X157948333Y-98720295D02*
X157948333Y-98863152D01*
X157948333Y-98863152D02*
X157900714Y-98958390D01*
X157900714Y-98958390D02*
X157853095Y-99006009D01*
X157853095Y-99006009D02*
X157757857Y-99053628D01*
X157757857Y-99053628D02*
X157376905Y-99053628D01*
X158853095Y-98529819D02*
X158376905Y-98529819D01*
X158376905Y-98529819D02*
X158329286Y-99006009D01*
X158329286Y-99006009D02*
X158376905Y-98958390D01*
X158376905Y-98958390D02*
X158472143Y-98910771D01*
X158472143Y-98910771D02*
X158710238Y-98910771D01*
X158710238Y-98910771D02*
X158805476Y-98958390D01*
X158805476Y-98958390D02*
X158853095Y-99006009D01*
X158853095Y-99006009D02*
X158900714Y-99101247D01*
X158900714Y-99101247D02*
X158900714Y-99339342D01*
X158900714Y-99339342D02*
X158853095Y-99434580D01*
X158853095Y-99434580D02*
X158805476Y-99482200D01*
X158805476Y-99482200D02*
X158710238Y-99529819D01*
X158710238Y-99529819D02*
X158472143Y-99529819D01*
X158472143Y-99529819D02*
X158376905Y-99482200D01*
X158376905Y-99482200D02*
X158329286Y-99434580D01*
D12*
%TO.C,G\u002A\u002A\u002A*%
X94182572Y-55637757D02*
X94039715Y-55566328D01*
X94039715Y-55566328D02*
X93825429Y-55566328D01*
X93825429Y-55566328D02*
X93611143Y-55637757D01*
X93611143Y-55637757D02*
X93468286Y-55780614D01*
X93468286Y-55780614D02*
X93396857Y-55923471D01*
X93396857Y-55923471D02*
X93325429Y-56209185D01*
X93325429Y-56209185D02*
X93325429Y-56423471D01*
X93325429Y-56423471D02*
X93396857Y-56709185D01*
X93396857Y-56709185D02*
X93468286Y-56852042D01*
X93468286Y-56852042D02*
X93611143Y-56994900D01*
X93611143Y-56994900D02*
X93825429Y-57066328D01*
X93825429Y-57066328D02*
X93968286Y-57066328D01*
X93968286Y-57066328D02*
X94182572Y-56994900D01*
X94182572Y-56994900D02*
X94254000Y-56923471D01*
X94254000Y-56923471D02*
X94254000Y-56423471D01*
X94254000Y-56423471D02*
X93968286Y-56423471D01*
X95111143Y-55566328D02*
X95111143Y-55923471D01*
X94754000Y-55780614D02*
X95111143Y-55923471D01*
X95111143Y-55923471D02*
X95468286Y-55780614D01*
X94896857Y-56209185D02*
X95111143Y-55923471D01*
X95111143Y-55923471D02*
X95325429Y-56209185D01*
X96254000Y-55566328D02*
X96254000Y-55923471D01*
X95896857Y-55780614D02*
X96254000Y-55923471D01*
X96254000Y-55923471D02*
X96611143Y-55780614D01*
X96039714Y-56209185D02*
X96254000Y-55923471D01*
X96254000Y-55923471D02*
X96468286Y-56209185D01*
X97396857Y-55566328D02*
X97396857Y-55923471D01*
X97039714Y-55780614D02*
X97396857Y-55923471D01*
X97396857Y-55923471D02*
X97754000Y-55780614D01*
X97182571Y-56209185D02*
X97396857Y-55923471D01*
X97396857Y-55923471D02*
X97611143Y-56209185D01*
D11*
%TO.C,S2*%
X130745400Y-90446904D02*
X130793019Y-90304047D01*
X130793019Y-90304047D02*
X130793019Y-90065952D01*
X130793019Y-90065952D02*
X130745400Y-89970714D01*
X130745400Y-89970714D02*
X130697780Y-89923095D01*
X130697780Y-89923095D02*
X130602542Y-89875476D01*
X130602542Y-89875476D02*
X130507304Y-89875476D01*
X130507304Y-89875476D02*
X130412066Y-89923095D01*
X130412066Y-89923095D02*
X130364447Y-89970714D01*
X130364447Y-89970714D02*
X130316828Y-90065952D01*
X130316828Y-90065952D02*
X130269209Y-90256428D01*
X130269209Y-90256428D02*
X130221590Y-90351666D01*
X130221590Y-90351666D02*
X130173971Y-90399285D01*
X130173971Y-90399285D02*
X130078733Y-90446904D01*
X130078733Y-90446904D02*
X129983495Y-90446904D01*
X129983495Y-90446904D02*
X129888257Y-90399285D01*
X129888257Y-90399285D02*
X129840638Y-90351666D01*
X129840638Y-90351666D02*
X129793019Y-90256428D01*
X129793019Y-90256428D02*
X129793019Y-90018333D01*
X129793019Y-90018333D02*
X129840638Y-89875476D01*
X129888257Y-89494523D02*
X129840638Y-89446904D01*
X129840638Y-89446904D02*
X129793019Y-89351666D01*
X129793019Y-89351666D02*
X129793019Y-89113571D01*
X129793019Y-89113571D02*
X129840638Y-89018333D01*
X129840638Y-89018333D02*
X129888257Y-88970714D01*
X129888257Y-88970714D02*
X129983495Y-88923095D01*
X129983495Y-88923095D02*
X130078733Y-88923095D01*
X130078733Y-88923095D02*
X130221590Y-88970714D01*
X130221590Y-88970714D02*
X130793019Y-89542142D01*
X130793019Y-89542142D02*
X130793019Y-88923095D01*
%TO.C,R6*%
X152868333Y-74129819D02*
X152535000Y-73653628D01*
X152296905Y-74129819D02*
X152296905Y-73129819D01*
X152296905Y-73129819D02*
X152677857Y-73129819D01*
X152677857Y-73129819D02*
X152773095Y-73177438D01*
X152773095Y-73177438D02*
X152820714Y-73225057D01*
X152820714Y-73225057D02*
X152868333Y-73320295D01*
X152868333Y-73320295D02*
X152868333Y-73463152D01*
X152868333Y-73463152D02*
X152820714Y-73558390D01*
X152820714Y-73558390D02*
X152773095Y-73606009D01*
X152773095Y-73606009D02*
X152677857Y-73653628D01*
X152677857Y-73653628D02*
X152296905Y-73653628D01*
X153725476Y-73129819D02*
X153535000Y-73129819D01*
X153535000Y-73129819D02*
X153439762Y-73177438D01*
X153439762Y-73177438D02*
X153392143Y-73225057D01*
X153392143Y-73225057D02*
X153296905Y-73367914D01*
X153296905Y-73367914D02*
X153249286Y-73558390D01*
X153249286Y-73558390D02*
X153249286Y-73939342D01*
X153249286Y-73939342D02*
X153296905Y-74034580D01*
X153296905Y-74034580D02*
X153344524Y-74082200D01*
X153344524Y-74082200D02*
X153439762Y-74129819D01*
X153439762Y-74129819D02*
X153630238Y-74129819D01*
X153630238Y-74129819D02*
X153725476Y-74082200D01*
X153725476Y-74082200D02*
X153773095Y-74034580D01*
X153773095Y-74034580D02*
X153820714Y-73939342D01*
X153820714Y-73939342D02*
X153820714Y-73701247D01*
X153820714Y-73701247D02*
X153773095Y-73606009D01*
X153773095Y-73606009D02*
X153725476Y-73558390D01*
X153725476Y-73558390D02*
X153630238Y-73510771D01*
X153630238Y-73510771D02*
X153439762Y-73510771D01*
X153439762Y-73510771D02*
X153344524Y-73558390D01*
X153344524Y-73558390D02*
X153296905Y-73606009D01*
X153296905Y-73606009D02*
X153249286Y-73701247D01*
%TO.C,RV1*%
X167552761Y-100530819D02*
X167219428Y-100054628D01*
X166981333Y-100530819D02*
X166981333Y-99530819D01*
X166981333Y-99530819D02*
X167362285Y-99530819D01*
X167362285Y-99530819D02*
X167457523Y-99578438D01*
X167457523Y-99578438D02*
X167505142Y-99626057D01*
X167505142Y-99626057D02*
X167552761Y-99721295D01*
X167552761Y-99721295D02*
X167552761Y-99864152D01*
X167552761Y-99864152D02*
X167505142Y-99959390D01*
X167505142Y-99959390D02*
X167457523Y-100007009D01*
X167457523Y-100007009D02*
X167362285Y-100054628D01*
X167362285Y-100054628D02*
X166981333Y-100054628D01*
X167838476Y-99530819D02*
X168171809Y-100530819D01*
X168171809Y-100530819D02*
X168505142Y-99530819D01*
X169362285Y-100530819D02*
X168790857Y-100530819D01*
X169076571Y-100530819D02*
X169076571Y-99530819D01*
X169076571Y-99530819D02*
X168981333Y-99673676D01*
X168981333Y-99673676D02*
X168886095Y-99768914D01*
X168886095Y-99768914D02*
X168790857Y-99816533D01*
%TO.C,H2*%
X89154095Y-53286819D02*
X89154095Y-52286819D01*
X89154095Y-52763009D02*
X89725523Y-52763009D01*
X89725523Y-53286819D02*
X89725523Y-52286819D01*
X90154095Y-52382057D02*
X90201714Y-52334438D01*
X90201714Y-52334438D02*
X90296952Y-52286819D01*
X90296952Y-52286819D02*
X90535047Y-52286819D01*
X90535047Y-52286819D02*
X90630285Y-52334438D01*
X90630285Y-52334438D02*
X90677904Y-52382057D01*
X90677904Y-52382057D02*
X90725523Y-52477295D01*
X90725523Y-52477295D02*
X90725523Y-52572533D01*
X90725523Y-52572533D02*
X90677904Y-52715390D01*
X90677904Y-52715390D02*
X90106476Y-53286819D01*
X90106476Y-53286819D02*
X90725523Y-53286819D01*
%TO.C,C1*%
X154265333Y-62843580D02*
X154217714Y-62891200D01*
X154217714Y-62891200D02*
X154074857Y-62938819D01*
X154074857Y-62938819D02*
X153979619Y-62938819D01*
X153979619Y-62938819D02*
X153836762Y-62891200D01*
X153836762Y-62891200D02*
X153741524Y-62795961D01*
X153741524Y-62795961D02*
X153693905Y-62700723D01*
X153693905Y-62700723D02*
X153646286Y-62510247D01*
X153646286Y-62510247D02*
X153646286Y-62367390D01*
X153646286Y-62367390D02*
X153693905Y-62176914D01*
X153693905Y-62176914D02*
X153741524Y-62081676D01*
X153741524Y-62081676D02*
X153836762Y-61986438D01*
X153836762Y-61986438D02*
X153979619Y-61938819D01*
X153979619Y-61938819D02*
X154074857Y-61938819D01*
X154074857Y-61938819D02*
X154217714Y-61986438D01*
X154217714Y-61986438D02*
X154265333Y-62034057D01*
X155217714Y-62938819D02*
X154646286Y-62938819D01*
X154932000Y-62938819D02*
X154932000Y-61938819D01*
X154932000Y-61938819D02*
X154836762Y-62081676D01*
X154836762Y-62081676D02*
X154741524Y-62176914D01*
X154741524Y-62176914D02*
X154646286Y-62224533D01*
%TO.C,R4*%
X146518333Y-99529819D02*
X146185000Y-99053628D01*
X145946905Y-99529819D02*
X145946905Y-98529819D01*
X145946905Y-98529819D02*
X146327857Y-98529819D01*
X146327857Y-98529819D02*
X146423095Y-98577438D01*
X146423095Y-98577438D02*
X146470714Y-98625057D01*
X146470714Y-98625057D02*
X146518333Y-98720295D01*
X146518333Y-98720295D02*
X146518333Y-98863152D01*
X146518333Y-98863152D02*
X146470714Y-98958390D01*
X146470714Y-98958390D02*
X146423095Y-99006009D01*
X146423095Y-99006009D02*
X146327857Y-99053628D01*
X146327857Y-99053628D02*
X145946905Y-99053628D01*
X147375476Y-98863152D02*
X147375476Y-99529819D01*
X147137381Y-98482200D02*
X146899286Y-99196485D01*
X146899286Y-99196485D02*
X147518333Y-99196485D01*
%TO.C,S5*%
X148855400Y-78941904D02*
X148903019Y-78799047D01*
X148903019Y-78799047D02*
X148903019Y-78560952D01*
X148903019Y-78560952D02*
X148855400Y-78465714D01*
X148855400Y-78465714D02*
X148807780Y-78418095D01*
X148807780Y-78418095D02*
X148712542Y-78370476D01*
X148712542Y-78370476D02*
X148617304Y-78370476D01*
X148617304Y-78370476D02*
X148522066Y-78418095D01*
X148522066Y-78418095D02*
X148474447Y-78465714D01*
X148474447Y-78465714D02*
X148426828Y-78560952D01*
X148426828Y-78560952D02*
X148379209Y-78751428D01*
X148379209Y-78751428D02*
X148331590Y-78846666D01*
X148331590Y-78846666D02*
X148283971Y-78894285D01*
X148283971Y-78894285D02*
X148188733Y-78941904D01*
X148188733Y-78941904D02*
X148093495Y-78941904D01*
X148093495Y-78941904D02*
X147998257Y-78894285D01*
X147998257Y-78894285D02*
X147950638Y-78846666D01*
X147950638Y-78846666D02*
X147903019Y-78751428D01*
X147903019Y-78751428D02*
X147903019Y-78513333D01*
X147903019Y-78513333D02*
X147950638Y-78370476D01*
X147903019Y-77465714D02*
X147903019Y-77941904D01*
X147903019Y-77941904D02*
X148379209Y-77989523D01*
X148379209Y-77989523D02*
X148331590Y-77941904D01*
X148331590Y-77941904D02*
X148283971Y-77846666D01*
X148283971Y-77846666D02*
X148283971Y-77608571D01*
X148283971Y-77608571D02*
X148331590Y-77513333D01*
X148331590Y-77513333D02*
X148379209Y-77465714D01*
X148379209Y-77465714D02*
X148474447Y-77418095D01*
X148474447Y-77418095D02*
X148712542Y-77418095D01*
X148712542Y-77418095D02*
X148807780Y-77465714D01*
X148807780Y-77465714D02*
X148855400Y-77513333D01*
X148855400Y-77513333D02*
X148903019Y-77608571D01*
X148903019Y-77608571D02*
X148903019Y-77846666D01*
X148903019Y-77846666D02*
X148855400Y-77941904D01*
X148855400Y-77941904D02*
X148807780Y-77989523D01*
%TO.C,R2*%
X180681333Y-80718819D02*
X180348000Y-80242628D01*
X180109905Y-80718819D02*
X180109905Y-79718819D01*
X180109905Y-79718819D02*
X180490857Y-79718819D01*
X180490857Y-79718819D02*
X180586095Y-79766438D01*
X180586095Y-79766438D02*
X180633714Y-79814057D01*
X180633714Y-79814057D02*
X180681333Y-79909295D01*
X180681333Y-79909295D02*
X180681333Y-80052152D01*
X180681333Y-80052152D02*
X180633714Y-80147390D01*
X180633714Y-80147390D02*
X180586095Y-80195009D01*
X180586095Y-80195009D02*
X180490857Y-80242628D01*
X180490857Y-80242628D02*
X180109905Y-80242628D01*
X181062286Y-79814057D02*
X181109905Y-79766438D01*
X181109905Y-79766438D02*
X181205143Y-79718819D01*
X181205143Y-79718819D02*
X181443238Y-79718819D01*
X181443238Y-79718819D02*
X181538476Y-79766438D01*
X181538476Y-79766438D02*
X181586095Y-79814057D01*
X181586095Y-79814057D02*
X181633714Y-79909295D01*
X181633714Y-79909295D02*
X181633714Y-80004533D01*
X181633714Y-80004533D02*
X181586095Y-80147390D01*
X181586095Y-80147390D02*
X181014667Y-80718819D01*
X181014667Y-80718819D02*
X181633714Y-80718819D01*
%TO.C,H3*%
X92710095Y-106626819D02*
X92710095Y-105626819D01*
X92710095Y-106103009D02*
X93281523Y-106103009D01*
X93281523Y-106626819D02*
X93281523Y-105626819D01*
X93662476Y-105626819D02*
X94281523Y-105626819D01*
X94281523Y-105626819D02*
X93948190Y-106007771D01*
X93948190Y-106007771D02*
X94091047Y-106007771D01*
X94091047Y-106007771D02*
X94186285Y-106055390D01*
X94186285Y-106055390D02*
X94233904Y-106103009D01*
X94233904Y-106103009D02*
X94281523Y-106198247D01*
X94281523Y-106198247D02*
X94281523Y-106436342D01*
X94281523Y-106436342D02*
X94233904Y-106531580D01*
X94233904Y-106531580D02*
X94186285Y-106579200D01*
X94186285Y-106579200D02*
X94091047Y-106626819D01*
X94091047Y-106626819D02*
X93805333Y-106626819D01*
X93805333Y-106626819D02*
X93710095Y-106579200D01*
X93710095Y-106579200D02*
X93662476Y-106531580D01*
%TO.C,S1*%
X124714095Y-96419200D02*
X124856952Y-96466819D01*
X124856952Y-96466819D02*
X125095047Y-96466819D01*
X125095047Y-96466819D02*
X125190285Y-96419200D01*
X125190285Y-96419200D02*
X125237904Y-96371580D01*
X125237904Y-96371580D02*
X125285523Y-96276342D01*
X125285523Y-96276342D02*
X125285523Y-96181104D01*
X125285523Y-96181104D02*
X125237904Y-96085866D01*
X125237904Y-96085866D02*
X125190285Y-96038247D01*
X125190285Y-96038247D02*
X125095047Y-95990628D01*
X125095047Y-95990628D02*
X124904571Y-95943009D01*
X124904571Y-95943009D02*
X124809333Y-95895390D01*
X124809333Y-95895390D02*
X124761714Y-95847771D01*
X124761714Y-95847771D02*
X124714095Y-95752533D01*
X124714095Y-95752533D02*
X124714095Y-95657295D01*
X124714095Y-95657295D02*
X124761714Y-95562057D01*
X124761714Y-95562057D02*
X124809333Y-95514438D01*
X124809333Y-95514438D02*
X124904571Y-95466819D01*
X124904571Y-95466819D02*
X125142666Y-95466819D01*
X125142666Y-95466819D02*
X125285523Y-95514438D01*
X126237904Y-96466819D02*
X125666476Y-96466819D01*
X125952190Y-96466819D02*
X125952190Y-95466819D01*
X125952190Y-95466819D02*
X125856952Y-95609676D01*
X125856952Y-95609676D02*
X125761714Y-95704914D01*
X125761714Y-95704914D02*
X125666476Y-95752533D01*
%TO.C,R3*%
X134453333Y-99529819D02*
X134120000Y-99053628D01*
X133881905Y-99529819D02*
X133881905Y-98529819D01*
X133881905Y-98529819D02*
X134262857Y-98529819D01*
X134262857Y-98529819D02*
X134358095Y-98577438D01*
X134358095Y-98577438D02*
X134405714Y-98625057D01*
X134405714Y-98625057D02*
X134453333Y-98720295D01*
X134453333Y-98720295D02*
X134453333Y-98863152D01*
X134453333Y-98863152D02*
X134405714Y-98958390D01*
X134405714Y-98958390D02*
X134358095Y-99006009D01*
X134358095Y-99006009D02*
X134262857Y-99053628D01*
X134262857Y-99053628D02*
X133881905Y-99053628D01*
X134786667Y-98529819D02*
X135405714Y-98529819D01*
X135405714Y-98529819D02*
X135072381Y-98910771D01*
X135072381Y-98910771D02*
X135215238Y-98910771D01*
X135215238Y-98910771D02*
X135310476Y-98958390D01*
X135310476Y-98958390D02*
X135358095Y-99006009D01*
X135358095Y-99006009D02*
X135405714Y-99101247D01*
X135405714Y-99101247D02*
X135405714Y-99339342D01*
X135405714Y-99339342D02*
X135358095Y-99434580D01*
X135358095Y-99434580D02*
X135310476Y-99482200D01*
X135310476Y-99482200D02*
X135215238Y-99529819D01*
X135215238Y-99529819D02*
X134929524Y-99529819D01*
X134929524Y-99529819D02*
X134834286Y-99482200D01*
X134834286Y-99482200D02*
X134786667Y-99434580D01*
%TO.C,S3*%
X142505400Y-90446904D02*
X142553019Y-90304047D01*
X142553019Y-90304047D02*
X142553019Y-90065952D01*
X142553019Y-90065952D02*
X142505400Y-89970714D01*
X142505400Y-89970714D02*
X142457780Y-89923095D01*
X142457780Y-89923095D02*
X142362542Y-89875476D01*
X142362542Y-89875476D02*
X142267304Y-89875476D01*
X142267304Y-89875476D02*
X142172066Y-89923095D01*
X142172066Y-89923095D02*
X142124447Y-89970714D01*
X142124447Y-89970714D02*
X142076828Y-90065952D01*
X142076828Y-90065952D02*
X142029209Y-90256428D01*
X142029209Y-90256428D02*
X141981590Y-90351666D01*
X141981590Y-90351666D02*
X141933971Y-90399285D01*
X141933971Y-90399285D02*
X141838733Y-90446904D01*
X141838733Y-90446904D02*
X141743495Y-90446904D01*
X141743495Y-90446904D02*
X141648257Y-90399285D01*
X141648257Y-90399285D02*
X141600638Y-90351666D01*
X141600638Y-90351666D02*
X141553019Y-90256428D01*
X141553019Y-90256428D02*
X141553019Y-90018333D01*
X141553019Y-90018333D02*
X141600638Y-89875476D01*
X141553019Y-89542142D02*
X141553019Y-88923095D01*
X141553019Y-88923095D02*
X141933971Y-89256428D01*
X141933971Y-89256428D02*
X141933971Y-89113571D01*
X141933971Y-89113571D02*
X141981590Y-89018333D01*
X141981590Y-89018333D02*
X142029209Y-88970714D01*
X142029209Y-88970714D02*
X142124447Y-88923095D01*
X142124447Y-88923095D02*
X142362542Y-88923095D01*
X142362542Y-88923095D02*
X142457780Y-88970714D01*
X142457780Y-88970714D02*
X142505400Y-89018333D01*
X142505400Y-89018333D02*
X142553019Y-89113571D01*
X142553019Y-89113571D02*
X142553019Y-89399285D01*
X142553019Y-89399285D02*
X142505400Y-89494523D01*
X142505400Y-89494523D02*
X142457780Y-89542142D01*
%TO.C,H1*%
X181610095Y-47698819D02*
X181610095Y-46698819D01*
X181610095Y-47175009D02*
X182181523Y-47175009D01*
X182181523Y-47698819D02*
X182181523Y-46698819D01*
X183181523Y-47698819D02*
X182610095Y-47698819D01*
X182895809Y-47698819D02*
X182895809Y-46698819D01*
X182895809Y-46698819D02*
X182800571Y-46841676D01*
X182800571Y-46841676D02*
X182705333Y-46936914D01*
X182705333Y-46936914D02*
X182610095Y-46984533D01*
D14*
%TO.C,U2*%
X148485000Y-56510000D02*
X148485000Y-56510000D01*
X149061000Y-56180000D02*
X149061000Y-56180000D01*
X149061000Y-56180000D02*
X149061000Y-50846000D01*
X159729000Y-56180000D02*
X149061000Y-56180000D01*
X159729000Y-56180000D02*
X159729000Y-56180000D01*
X151855000Y-55926000D02*
X151855000Y-55926000D01*
X149569000Y-53640000D02*
X151855000Y-53640000D01*
X151855000Y-53640000D02*
X151855000Y-55926000D01*
X149061000Y-50846000D02*
X159729000Y-50846000D01*
X159729000Y-50846000D02*
X159729000Y-56180000D01*
D10*
X148299000Y-56688000D02*
X160745000Y-56688000D01*
X160745000Y-56688000D02*
X160745000Y-49322000D01*
X160745000Y-49322000D02*
X148299000Y-49322000D01*
X148299000Y-49322000D02*
X148299000Y-56688000D01*
%TO.C,S4*%
X157058800Y-93291800D02*
X159167000Y-93291800D01*
X157065400Y-93291800D02*
X157065400Y-93541800D01*
X154823600Y-92295000D02*
X154823600Y-87627600D01*
X161427600Y-87602200D02*
X161417800Y-92895000D01*
X157069800Y-87185800D02*
X159165000Y-87185800D01*
D15*
%TO.C,U1*%
X89055000Y-77450000D02*
X89055000Y-49550000D01*
X143455000Y-77450000D02*
X89055000Y-77450000D01*
X89055000Y-49550000D02*
X143455000Y-49550000D01*
X143455000Y-49550000D02*
X143455000Y-77450000D01*
D16*
X96545000Y-78100000D02*
G75*
G03*
X96545000Y-78100000I-100000J0D01*
G01*
D15*
%TO.C,U4*%
X161945000Y-65405000D02*
X161945000Y-73025000D01*
X162970000Y-75790000D02*
X165245000Y-75790000D01*
X164795000Y-59815000D02*
X164795000Y-62640000D01*
X164795000Y-62640000D02*
X162970000Y-62640000D01*
X165245000Y-75790000D02*
X165245000Y-78365000D01*
X165245000Y-80815000D02*
X173845000Y-80815000D01*
X165895000Y-59815000D02*
X164795000Y-59815000D01*
X173195000Y-59815000D02*
X174295000Y-59815000D01*
X173845000Y-75790000D02*
X176095000Y-75790000D01*
X173845000Y-78365000D02*
X173845000Y-75790000D01*
X174295000Y-59815000D02*
X174295000Y-62640000D01*
X174295000Y-62640000D02*
X176120000Y-62640000D01*
X177445000Y-64465000D02*
X178945000Y-64465000D01*
X178945000Y-64465000D02*
X178945000Y-65665000D01*
X178945000Y-73015000D02*
X178945000Y-73965000D01*
X178945000Y-73965000D02*
X177395000Y-73965000D01*
D16*
X180095000Y-71715000D02*
G75*
G03*
X180095000Y-71715000I-100000J0D01*
G01*
D15*
%TO.C,U3*%
X95905000Y-87630000D02*
X95905000Y-95250000D01*
X96930000Y-98015000D02*
X99205000Y-98015000D01*
X98755000Y-82040000D02*
X98755000Y-84865000D01*
X98755000Y-84865000D02*
X96930000Y-84865000D01*
X99205000Y-98015000D02*
X99205000Y-100590000D01*
X99205000Y-103040000D02*
X107805000Y-103040000D01*
X99855000Y-82040000D02*
X98755000Y-82040000D01*
X107155000Y-82040000D02*
X108255000Y-82040000D01*
X107805000Y-98015000D02*
X110055000Y-98015000D01*
X107805000Y-100590000D02*
X107805000Y-98015000D01*
X108255000Y-82040000D02*
X108255000Y-84865000D01*
X108255000Y-84865000D02*
X110080000Y-84865000D01*
X111405000Y-86690000D02*
X112905000Y-86690000D01*
X112905000Y-86690000D02*
X112905000Y-87890000D01*
X112905000Y-95240000D02*
X112905000Y-96190000D01*
X112905000Y-96190000D02*
X111355000Y-96190000D01*
D16*
X114055000Y-93940000D02*
G75*
G03*
X114055000Y-93940000I-100000J0D01*
G01*
D14*
%TO.C,R1*%
X96535000Y-101250000D02*
X92695000Y-101250000D01*
X96535000Y-99410000D02*
X92695000Y-99410000D01*
%TO.C,R5*%
X160035000Y-98075000D02*
X156195000Y-98075000D01*
X160035000Y-96235000D02*
X156195000Y-96235000D01*
%TO.C,G\u002A\u002A\u002A*%
G36*
X95334667Y-54144334D02*
G01*
X95292334Y-54186667D01*
X95250000Y-54144334D01*
X95292334Y-54102000D01*
X95334667Y-54144334D01*
G37*
G36*
X96096667Y-57531000D02*
G01*
X96054334Y-57573334D01*
X96012000Y-57531000D01*
X96054334Y-57488667D01*
X96096667Y-57531000D01*
G37*
G36*
X95758871Y-56939179D02*
G01*
X95794384Y-56971041D01*
X95770496Y-57045061D01*
X95635195Y-57091150D01*
X95446014Y-57092881D01*
X95397130Y-57084476D01*
X95294879Y-57023428D01*
X95296294Y-56974259D01*
X95415179Y-56911753D01*
X95600763Y-56899857D01*
X95758871Y-56939179D01*
G37*
G36*
X95364893Y-57610391D02*
G01*
X95592230Y-57739882D01*
X95749090Y-57770349D01*
X95861523Y-57732575D01*
X95984513Y-57683379D01*
X95999095Y-57738885D01*
X95993998Y-57755612D01*
X95882087Y-57877444D01*
X95690901Y-57880086D01*
X95456171Y-57768633D01*
X95320413Y-57659577D01*
X95038334Y-57397188D01*
X95364893Y-57610391D01*
G37*
G36*
X96380983Y-55690955D02*
G01*
X96519544Y-55819954D01*
X96572172Y-55931388D01*
X96556937Y-56180772D01*
X96474579Y-56306745D01*
X96260375Y-56453542D01*
X96044032Y-56432763D01*
X95898122Y-56317833D01*
X95776295Y-56109747D01*
X95783831Y-55927556D01*
X95906167Y-55820019D01*
X96060180Y-55733860D01*
X96107263Y-55686616D01*
X96223776Y-55636094D01*
X96380983Y-55690955D01*
G37*
G36*
X94985404Y-55686616D02*
G01*
X95104464Y-55781608D01*
X95186500Y-55820019D01*
X95311575Y-55938546D01*
X95316484Y-56120659D01*
X95201941Y-56311360D01*
X95179833Y-56332545D01*
X94957795Y-56459716D01*
X94748967Y-56419020D01*
X94618088Y-56306745D01*
X94508887Y-56077531D01*
X94520495Y-55931388D01*
X94613817Y-55770390D01*
X94765239Y-55662758D01*
X94915418Y-55639737D01*
X94985404Y-55686616D01*
G37*
G36*
X95969449Y-54167248D02*
G01*
X95892224Y-54290760D01*
X95760424Y-54491912D01*
X96219151Y-54487456D01*
X96512279Y-54498774D01*
X96710715Y-54556378D01*
X96887738Y-54685111D01*
X96936551Y-54730664D01*
X97117521Y-54959458D01*
X97235972Y-55210071D01*
X97247683Y-55257955D01*
X97299521Y-55442311D01*
X97375127Y-55488317D01*
X97439238Y-55464796D01*
X97639794Y-55437249D01*
X97856052Y-55506659D01*
X98002467Y-55643346D01*
X98011460Y-55663323D01*
X97994345Y-55791052D01*
X97910046Y-56009736D01*
X97784431Y-56268860D01*
X97643372Y-56517904D01*
X97512739Y-56706353D01*
X97442420Y-56774509D01*
X97319801Y-56769201D01*
X97143931Y-56684866D01*
X96981176Y-56597568D01*
X96888814Y-56583664D01*
X96888239Y-56584206D01*
X96879742Y-56683047D01*
X96900824Y-56894429D01*
X96930169Y-57077597D01*
X96968021Y-57375149D01*
X96954193Y-57549619D01*
X96932717Y-57579895D01*
X96892899Y-57687906D01*
X96912521Y-57784492D01*
X96931771Y-57891393D01*
X96873055Y-57878559D01*
X96788841Y-57885277D01*
X96774000Y-57954803D01*
X96707060Y-58102551D01*
X96535080Y-58292062D01*
X96301323Y-58483365D01*
X96049051Y-58636488D01*
X96022617Y-58649015D01*
X95764056Y-58726595D01*
X95546334Y-58751029D01*
X95274831Y-58715076D01*
X95070050Y-58649015D01*
X94818365Y-58502381D01*
X94580539Y-58313267D01*
X94399835Y-58121645D01*
X94319516Y-57967484D01*
X94318667Y-57954803D01*
X94276321Y-57864107D01*
X94219612Y-57878559D01*
X94157339Y-57882915D01*
X94180146Y-57784492D01*
X94194569Y-57635237D01*
X94159950Y-57579895D01*
X94124187Y-57465642D01*
X94140161Y-57216967D01*
X94162498Y-57077597D01*
X94201309Y-56819725D01*
X94213662Y-56637685D01*
X94204428Y-56584206D01*
X94113809Y-56596655D01*
X93951698Y-56682932D01*
X93948736Y-56684866D01*
X93771631Y-56769572D01*
X93650247Y-56774509D01*
X93541786Y-56657022D01*
X93405116Y-56444209D01*
X93266104Y-56186588D01*
X93150622Y-55934676D01*
X93084540Y-55738990D01*
X93081207Y-55663323D01*
X93088121Y-55655834D01*
X93292313Y-55655834D01*
X93295313Y-55758378D01*
X93347707Y-55933437D01*
X93422106Y-56108831D01*
X93491124Y-56212378D01*
X93505871Y-56218667D01*
X93510191Y-56145825D01*
X93490846Y-55970055D01*
X93490060Y-55964667D01*
X93489099Y-55927413D01*
X94309553Y-55927413D01*
X94343913Y-56278479D01*
X94480653Y-56571094D01*
X94481436Y-56572092D01*
X94571903Y-56719513D01*
X94611229Y-56896862D01*
X94608017Y-57160262D01*
X94595499Y-57316169D01*
X94576467Y-57617251D01*
X94589815Y-57771035D01*
X94637519Y-57796804D01*
X94644396Y-57792996D01*
X94722544Y-57806476D01*
X94742000Y-57921115D01*
X94761285Y-58046461D01*
X94795455Y-58056100D01*
X94895789Y-58058210D01*
X95025961Y-58126656D01*
X95225740Y-58207721D01*
X95492379Y-58249241D01*
X95546334Y-58250667D01*
X95814101Y-58220310D01*
X96035985Y-58145410D01*
X96066706Y-58126656D01*
X96217672Y-58051846D01*
X96297212Y-58056100D01*
X96338239Y-58029145D01*
X96350667Y-57921115D01*
X96382665Y-57790012D01*
X96448271Y-57792996D01*
X96499592Y-57779205D01*
X96516354Y-57639367D01*
X96500536Y-57354198D01*
X96497168Y-57316169D01*
X96478114Y-56997732D01*
X96497851Y-56789794D01*
X96564981Y-56636234D01*
X96611231Y-56572092D01*
X96748401Y-56279858D01*
X96783179Y-55928897D01*
X96725644Y-55623755D01*
X97410388Y-55623755D01*
X97430034Y-55696632D01*
X97498280Y-55710667D01*
X97595348Y-55750739D01*
X97610847Y-55897605D01*
X97602607Y-55964667D01*
X97580695Y-56160097D01*
X97601926Y-56198417D01*
X97676017Y-56080286D01*
X97730653Y-55973334D01*
X97800515Y-55783763D01*
X97802661Y-55659434D01*
X97800354Y-55655834D01*
X97666711Y-55573952D01*
X97501261Y-55567787D01*
X97410388Y-55623755D01*
X96725644Y-55623755D01*
X96718472Y-55585716D01*
X96557187Y-55316826D01*
X96556322Y-55315959D01*
X96391824Y-55178179D01*
X96227673Y-55133696D01*
X95984822Y-55159783D01*
X95721625Y-55202857D01*
X95540285Y-55216512D01*
X95355901Y-55200747D01*
X95107845Y-55159783D01*
X94863458Y-55133740D01*
X94699629Y-55178885D01*
X94536345Y-55315959D01*
X94374666Y-55584403D01*
X94309553Y-55927413D01*
X93489099Y-55927413D01*
X93485298Y-55780005D01*
X93557422Y-55713541D01*
X93594387Y-55710667D01*
X93688590Y-55670964D01*
X93682279Y-55623755D01*
X93562004Y-55562761D01*
X93395151Y-55583931D01*
X93292313Y-55655834D01*
X93088121Y-55655834D01*
X93213146Y-55520421D01*
X93425435Y-55441150D01*
X93632527Y-55455190D01*
X93653429Y-55464796D01*
X93755148Y-55483341D01*
X93816909Y-55381017D01*
X93844984Y-55257955D01*
X93941721Y-55016104D01*
X94114092Y-54773849D01*
X94156116Y-54730664D01*
X94338736Y-54580787D01*
X94524574Y-54507917D01*
X94786682Y-54487333D01*
X94874728Y-54487479D01*
X95151329Y-54479293D01*
X95294142Y-54441544D01*
X95337508Y-54364809D01*
X95337667Y-54360479D01*
X95368093Y-54315413D01*
X95449796Y-54426047D01*
X95454315Y-54434141D01*
X95567962Y-54639282D01*
X95626382Y-54455218D01*
X95747380Y-54265031D01*
X95854413Y-54180381D01*
X95967524Y-54126978D01*
X95969449Y-54167248D01*
G37*
D10*
%TO.C,S2*%
X133868800Y-93291800D02*
X135977000Y-93291800D01*
X133875400Y-93291800D02*
X133875400Y-93541800D01*
X131633600Y-92295000D02*
X131633600Y-87627600D01*
X138237600Y-87602200D02*
X138227800Y-92895000D01*
X133879800Y-87185800D02*
X135975000Y-87185800D01*
D14*
%TO.C,R6*%
X154955000Y-72675000D02*
X151115000Y-72675000D01*
X154955000Y-70835000D02*
X151115000Y-70835000D01*
%TO.C,RV1*%
X169604000Y-97245000D02*
X170925000Y-97245000D01*
X169604000Y-97245000D02*
X169604000Y-93308000D01*
X173375000Y-97245000D02*
X173755000Y-97245000D01*
X175496000Y-97245000D02*
X176255000Y-97245000D01*
X177995000Y-97245000D02*
X179645000Y-97245000D01*
X179645000Y-97245000D02*
X179645000Y-93308000D01*
X169604000Y-88941000D02*
X169604000Y-85005000D01*
X179645000Y-88941000D02*
X179645000Y-85005000D01*
X169604000Y-85005000D02*
X179645000Y-85005000D01*
%TO.C,C1*%
X147710225Y-60755000D02*
X148210225Y-60755000D01*
X147960225Y-60505000D02*
X147960225Y-61005000D01*
X150515000Y-59650000D02*
X150515000Y-64810000D01*
X150555000Y-59650000D02*
X150555000Y-64810000D01*
X150595000Y-59651000D02*
X150595000Y-64809000D01*
X150635000Y-59652000D02*
X150635000Y-64808000D01*
X150675000Y-59654000D02*
X150675000Y-64806000D01*
X150715000Y-59657000D02*
X150715000Y-64803000D01*
X150755000Y-59661000D02*
X150755000Y-61190000D01*
X150755000Y-63270000D02*
X150755000Y-64799000D01*
X150795000Y-59665000D02*
X150795000Y-61190000D01*
X150795000Y-63270000D02*
X150795000Y-64795000D01*
X150835000Y-59669000D02*
X150835000Y-61190000D01*
X150835000Y-63270000D02*
X150835000Y-64791000D01*
X150875000Y-59674000D02*
X150875000Y-61190000D01*
X150875000Y-63270000D02*
X150875000Y-64786000D01*
X150915000Y-59680000D02*
X150915000Y-61190000D01*
X150915000Y-63270000D02*
X150915000Y-64780000D01*
X150955000Y-59687000D02*
X150955000Y-61190000D01*
X150955000Y-63270000D02*
X150955000Y-64773000D01*
X150995000Y-59694000D02*
X150995000Y-61190000D01*
X150995000Y-63270000D02*
X150995000Y-64766000D01*
X151035000Y-59702000D02*
X151035000Y-61190000D01*
X151035000Y-63270000D02*
X151035000Y-64758000D01*
X151075000Y-59710000D02*
X151075000Y-61190000D01*
X151075000Y-63270000D02*
X151075000Y-64750000D01*
X151115000Y-59719000D02*
X151115000Y-61190000D01*
X151115000Y-63270000D02*
X151115000Y-64741000D01*
X151155000Y-59729000D02*
X151155000Y-61190000D01*
X151155000Y-63270000D02*
X151155000Y-64731000D01*
X151195000Y-59739000D02*
X151195000Y-61190000D01*
X151195000Y-63270000D02*
X151195000Y-64721000D01*
X151236000Y-59750000D02*
X151236000Y-61190000D01*
X151236000Y-63270000D02*
X151236000Y-64710000D01*
X151276000Y-59762000D02*
X151276000Y-61190000D01*
X151276000Y-63270000D02*
X151276000Y-64698000D01*
X151316000Y-59775000D02*
X151316000Y-61190000D01*
X151316000Y-63270000D02*
X151316000Y-64685000D01*
X151356000Y-59788000D02*
X151356000Y-61190000D01*
X151356000Y-63270000D02*
X151356000Y-64672000D01*
X151396000Y-59802000D02*
X151396000Y-61190000D01*
X151396000Y-63270000D02*
X151396000Y-64658000D01*
X151436000Y-59816000D02*
X151436000Y-61190000D01*
X151436000Y-63270000D02*
X151436000Y-64644000D01*
X151476000Y-59832000D02*
X151476000Y-61190000D01*
X151476000Y-63270000D02*
X151476000Y-64628000D01*
X151516000Y-59848000D02*
X151516000Y-61190000D01*
X151516000Y-63270000D02*
X151516000Y-64612000D01*
X151556000Y-59865000D02*
X151556000Y-61190000D01*
X151556000Y-63270000D02*
X151556000Y-64595000D01*
X151596000Y-59882000D02*
X151596000Y-61190000D01*
X151596000Y-63270000D02*
X151596000Y-64578000D01*
X151636000Y-59901000D02*
X151636000Y-61190000D01*
X151636000Y-63270000D02*
X151636000Y-64559000D01*
X151676000Y-59920000D02*
X151676000Y-61190000D01*
X151676000Y-63270000D02*
X151676000Y-64540000D01*
X151716000Y-59940000D02*
X151716000Y-61190000D01*
X151716000Y-63270000D02*
X151716000Y-64520000D01*
X151756000Y-59962000D02*
X151756000Y-61190000D01*
X151756000Y-63270000D02*
X151756000Y-64498000D01*
X151796000Y-59983000D02*
X151796000Y-61190000D01*
X151796000Y-63270000D02*
X151796000Y-64477000D01*
X151836000Y-60006000D02*
X151836000Y-61190000D01*
X151836000Y-63270000D02*
X151836000Y-64454000D01*
X151876000Y-60030000D02*
X151876000Y-61190000D01*
X151876000Y-63270000D02*
X151876000Y-64430000D01*
X151916000Y-60055000D02*
X151916000Y-61190000D01*
X151916000Y-63270000D02*
X151916000Y-64405000D01*
X151956000Y-60081000D02*
X151956000Y-61190000D01*
X151956000Y-63270000D02*
X151956000Y-64379000D01*
X151996000Y-60108000D02*
X151996000Y-61190000D01*
X151996000Y-63270000D02*
X151996000Y-64352000D01*
X152036000Y-60135000D02*
X152036000Y-61190000D01*
X152036000Y-63270000D02*
X152036000Y-64325000D01*
X152076000Y-60165000D02*
X152076000Y-61190000D01*
X152076000Y-63270000D02*
X152076000Y-64295000D01*
X152116000Y-60195000D02*
X152116000Y-61190000D01*
X152116000Y-63270000D02*
X152116000Y-64265000D01*
X152156000Y-60226000D02*
X152156000Y-61190000D01*
X152156000Y-63270000D02*
X152156000Y-64234000D01*
X152196000Y-60259000D02*
X152196000Y-61190000D01*
X152196000Y-63270000D02*
X152196000Y-64201000D01*
X152236000Y-60293000D02*
X152236000Y-61190000D01*
X152236000Y-63270000D02*
X152236000Y-64167000D01*
X152276000Y-60329000D02*
X152276000Y-61190000D01*
X152276000Y-63270000D02*
X152276000Y-64131000D01*
X152316000Y-60366000D02*
X152316000Y-61190000D01*
X152316000Y-63270000D02*
X152316000Y-64094000D01*
X152356000Y-60404000D02*
X152356000Y-61190000D01*
X152356000Y-63270000D02*
X152356000Y-64056000D01*
X152396000Y-60445000D02*
X152396000Y-61190000D01*
X152396000Y-63270000D02*
X152396000Y-64015000D01*
X152436000Y-60487000D02*
X152436000Y-61190000D01*
X152436000Y-63270000D02*
X152436000Y-63973000D01*
X152476000Y-60531000D02*
X152476000Y-61190000D01*
X152476000Y-63270000D02*
X152476000Y-63929000D01*
X152516000Y-60577000D02*
X152516000Y-61190000D01*
X152516000Y-63270000D02*
X152516000Y-63883000D01*
X152556000Y-60625000D02*
X152556000Y-61190000D01*
X152556000Y-63270000D02*
X152556000Y-63835000D01*
X152596000Y-60676000D02*
X152596000Y-61190000D01*
X152596000Y-63270000D02*
X152596000Y-63784000D01*
X152636000Y-60730000D02*
X152636000Y-61190000D01*
X152636000Y-63270000D02*
X152636000Y-63730000D01*
X152676000Y-60787000D02*
X152676000Y-61190000D01*
X152676000Y-63270000D02*
X152676000Y-63673000D01*
X152716000Y-60847000D02*
X152716000Y-61190000D01*
X152716000Y-63270000D02*
X152716000Y-63613000D01*
X152756000Y-60911000D02*
X152756000Y-61190000D01*
X152756000Y-63270000D02*
X152756000Y-63549000D01*
X152796000Y-60979000D02*
X152796000Y-61190000D01*
X152796000Y-63270000D02*
X152796000Y-63481000D01*
X152836000Y-61052000D02*
X152836000Y-63408000D01*
X152876000Y-61132000D02*
X152876000Y-63328000D01*
X152916000Y-61219000D02*
X152916000Y-63241000D01*
X152956000Y-61315000D02*
X152956000Y-63145000D01*
X152996000Y-61425000D02*
X152996000Y-63035000D01*
X153036000Y-61553000D02*
X153036000Y-62907000D01*
X153076000Y-61712000D02*
X153076000Y-62748000D01*
X153116000Y-61946000D02*
X153116000Y-62514000D01*
X153135000Y-62230000D02*
G75*
G03*
X153135000Y-62230000I-2620000J0D01*
G01*
%TO.C,R4*%
X148605000Y-98075000D02*
X144765000Y-98075000D01*
X148605000Y-96235000D02*
X144765000Y-96235000D01*
D10*
%TO.C,S5*%
X151978800Y-81786800D02*
X154087000Y-81786800D01*
X151985400Y-81786800D02*
X151985400Y-82036800D01*
X149743600Y-80790000D02*
X149743600Y-76122600D01*
X156347600Y-76097200D02*
X156337800Y-81390000D01*
X151989800Y-75680800D02*
X154085000Y-75680800D01*
D14*
%TO.C,R2*%
X176515000Y-77185000D02*
X180355000Y-77185000D01*
X176515000Y-79025000D02*
X180355000Y-79025000D01*
D15*
%TO.C,S1*%
X121285000Y-94870000D02*
X121285000Y-86740000D01*
X126365000Y-94870000D02*
X121285000Y-94870000D01*
X126365000Y-86740000D02*
X126365000Y-94870000D01*
X126365000Y-86740000D02*
X121285000Y-86740000D01*
D16*
X123925000Y-95620000D02*
G75*
G03*
X123925000Y-95620000I-100000J0D01*
G01*
D14*
%TO.C,R3*%
X136540000Y-98075000D02*
X132700000Y-98075000D01*
X136540000Y-96235000D02*
X132700000Y-96235000D01*
D10*
%TO.C,S3*%
X145628800Y-93291800D02*
X147737000Y-93291800D01*
X145635400Y-93291800D02*
X145635400Y-93541800D01*
X143393600Y-92295000D02*
X143393600Y-87627600D01*
X149997600Y-87602200D02*
X149987800Y-92895000D01*
X145639800Y-87185800D02*
X147735000Y-87185800D01*
%TD*%
M02*
